<svg class="marks" width="1446" height="530" viewBox="0 0 1446 530" version="1.1" xmlns="http://www.w3.org/2000/svg" xmlns:xlink="http://www.w3.org/1999/xlink"><g transform="translate(41,10)"><g class="mark-group role-frame root"><g transform="translate(0,0)"><path class="background" d="M0.5,0.5h1400v500h-1400Z" style="fill: none; stroke: #ddd;"></path><g><g class="mark-group role-axis"><g transform="translate(0.5,0.5)"><path class="background" d="M0,0h0v0h0Z" style="pointer-events: none; fill: none;"></path><g><g class="mark-rule role-axis-grid" style="pointer-events: none;"><line transform="translate(0,500)" x2="1400" y2="0" style="fill: none; stroke: #ddd; stroke-width: 1; opacity: 1;"></line><line transform="translate(0,462)" x2="1400" y2="0" style="fill: none; stroke: #ddd; stroke-width: 1; opacity: 1;"></line><line transform="translate(0,423)" x2="1400" y2="0" style="fill: none; stroke: #ddd; stroke-width: 1; opacity: 1;"></line><line transform="translate(0,385)" x2="1400" y2="0" style="fill: none; stroke: #ddd; stroke-width: 1; opacity: 1;"></line><line transform="translate(0,346)" x2="1400" y2="0" style="fill: none; stroke: #ddd; stroke-width: 1; opacity: 1;"></line><line transform="translate(0,308)" x2="1400" y2="0" style="fill: none; stroke: #ddd; stroke-width: 1; opacity: 1;"></line><line transform="translate(0,269)" x2="1400" y2="0" style="fill: none; stroke: #ddd; stroke-width: 1; opacity: 1;"></line><line transform="translate(0,231)" x2="1400" y2="0" style="fill: none; stroke: #ddd; stroke-width: 1; opacity: 1;"></line><line transform="translate(0,192)" x2="1400" y2="0" style="fill: none; stroke: #ddd; stroke-width: 1; opacity: 1;"></line><line transform="translate(0,154)" x2="1400" y2="0" style="fill: none; stroke: #ddd; stroke-width: 1; opacity: 1;"></line><line transform="translate(0,115)" x2="1400" y2="0" style="fill: none; stroke: #ddd; stroke-width: 1; opacity: 1;"></line><line transform="translate(0,77)" x2="1400" y2="0" style="fill: none; stroke: #ddd; stroke-width: 1; opacity: 1;"></line><line transform="translate(0,38)" x2="1400" y2="0" style="fill: none; stroke: #ddd; stroke-width: 1; opacity: 1;"></line><line transform="translate(0,0)" x2="1400" y2="0" style="fill: none; stroke: #ddd; stroke-width: 1; opacity: 1;"></line></g></g></g></g><g class="mark-rule role-mark layer_0_marks"><line transform="translate(3.6458333333333335,499.2259781576923)" x2="0" y2="-0.020601346153796385" style="fill: none; stroke: black;"></line><line transform="translate(10.9375,499.1819662346154)" x2="0" y2="-0.014442307692320355" style="fill: none; stroke: black;"></line><line transform="translate(18.229166666666668,497.7525406576923)" x2="0" y2="-0.8134234615384344" style="fill: none; stroke: black;"></line><line transform="translate(25.520833333333332,497.9366431576923)" x2="0" y2="-0.07740326923072871" style="fill: none; stroke: black;"></line><line transform="translate(32.8125,498.05133392692306)" x2="0" y2="-0.28758942307689495" style="fill: none; stroke: black;"></line><line transform="translate(40.10416666666667,491.44830200384615)" x2="0" y2="-0.15181480769228983" style="fill: none; stroke: black;"></line><line transform="translate(47.395833333333336,491.81766700384617)" x2="0" y2="-0.01113634615387582" style="fill: none; stroke: black;"></line><line transform="translate(54.68750000000001,491.99378219615386)" x2="0" y2="-0.06340923076925264" style="fill: none; stroke: black;"></line><line transform="translate(61.97916666666667,492.0870470038462)" x2="0" y2="-0.08125500000005559" style="fill: none; stroke: black;"></line><line transform="translate(69.27083333333333,492.21538085)" x2="0" y2="-0.35449730769227017" style="fill: none; stroke: black;"></line><line transform="translate(76.5625,492.0983806576923)" x2="0" y2="-0.4234934615384418" style="fill: none; stroke: black;"></line><line transform="translate(83.85416666666667,492.30003585)" x2="0" y2="-0.7440655769230489" style="fill: none; stroke: black;"></line><line transform="translate(91.14583333333333,492.2770710423077)" x2="0" y2="-0.7521282692307523" style="fill: none; stroke: black;"></line><line transform="translate(98.4375,491.9647191192308)" x2="0" y2="-0.4087686538461526" style="fill: none; stroke: black;"></line><line transform="translate(105.72916666666667,461.3953077730769)" x2="0" y2="-0.7112317307692138" style="fill: none; stroke: black;"></line><line transform="translate(113.02083333333333,241.17202104230768)" x2="0" y2="-1.7190505769230526" style="fill: none; stroke: black;"></line><line transform="translate(120.3125,254.2415939269231)" x2="0" y2="-2.875230384615378" style="fill: none; stroke: black;"></line><line transform="translate(127.60416666666667,490.48595758076925)" x2="0" y2="-0.1906461538461599" style="fill: none; stroke: black;"></line><line transform="translate(134.89583333333334,253.20863661923076)" x2="0" y2="-2.0121096153846167" style="fill: none; stroke: black;"></line><line transform="translate(142.18750000000003,246.67775450384616)" x2="0" y2="-0.8991542307692555" style="fill: none; stroke: black;"></line><line transform="translate(149.47916666666669,253.40126123461536)" x2="0" y2="-6.621520384615366" style="fill: none; stroke: black;"></line><line transform="translate(156.77083333333334,271.6123362346153)" x2="0" y2="-1.2248678846153211" style="fill: none; stroke: black;"></line><line transform="translate(164.06250000000003,329.09962988846155)" x2="0" y2="-3.0122298076923357" style="fill: none; stroke: black;"></line><line transform="translate(171.35416666666669,328.97660335)" x2="0" y2="-0.029687115384604112" style="fill: none; stroke: black;"></line><line transform="translate(178.64583333333334,327.8022748884615)" x2="0" y2="-6.925914615384613" style="fill: none; stroke: black;"></line><line transform="translate(185.93750000000003,332.00278085)" x2="0" y2="-0.24807096153847397" style="fill: none; stroke: black;"></line><line transform="translate(193.22916666666669,334.34094488846154)" x2="0" y2="-1.1911655769230833" style="fill: none; stroke: black;"></line><line transform="translate(200.52083333333334,282.96626085)" x2="0" y2="-1.437543461538496" style="fill: none; stroke: black;"></line><line transform="translate(207.81250000000003,283.34138585000005)" x2="0" y2="-0.6371644230770244" style="fill: none; stroke: black;"></line><line transform="translate(215.10416666666669,278.64092661923075)" x2="0" y2="-11.491457115384605" style="fill: none; stroke: black;"></line><line transform="translate(222.39583333333334,260.96341488846156)" x2="0" y2="-0.25910019230769876" style="fill: none; stroke: black;"></line><line transform="translate(229.68750000000003,268.90538200384617)" x2="0" y2="-4.470119423076994" style="fill: none; stroke: black;"></line><line transform="translate(236.97916666666669,272.7926996961538)" x2="0" y2="-7.0016674999999395" style="fill: none; stroke: black;"></line><line transform="translate(244.27083333333334,261.0215973884616)" x2="0" y2="-7.617935000000045" style="fill: none; stroke: black;"></line><line transform="translate(251.56250000000003,260.85797431153844)" x2="0" y2="-1.4537082692307308" style="fill: none; stroke: black;"></line><line transform="translate(258.8541666666667,254.8757764269231)" x2="0" y2="-22.44728846153845" style="fill: none; stroke: black;"></line><line transform="translate(266.1458333333333,262.2726346961539)" x2="0" y2="-7.943240384615422" style="fill: none; stroke: black;"></line><line transform="translate(273.4375,258.5535627730769)" x2="0" y2="-0.6401325000000497" style="fill: none; stroke: black;"></line><line transform="translate(280.7291666666667,264.64365277307695)" x2="0" y2="-0.5219730769231319" style="fill: none; stroke: black;"></line><line transform="translate(288.0208333333333,194.32060354230765)" x2="0" y2="-1.005901153846139" style="fill: none; stroke: black;"></line><line transform="translate(295.3125,193.17415969615382)" x2="0" y2="-2.9651561538461237" style="fill: none; stroke: black;"></line><line transform="translate(302.6041666666667,190.60234123461532)" x2="0" y2="-1.5423928846153103" style="fill: none; stroke: black;"></line><line transform="translate(309.8958333333333,189.0918014269231)" x2="0" y2="-1.2734592307692765" style="fill: none; stroke: black;"></line><line transform="translate(317.1875,191.7388773884615)" x2="0" y2="-1.2709357692307321" style="fill: none; stroke: black;"></line><line transform="translate(324.4791666666667,247.83881585)" x2="0" y2="-1.0096274999999935" style="fill: none; stroke: black;"></line><line transform="translate(331.7708333333333,248.55979661923078)" x2="0" y2="-0.5001384615384552" style="fill: none; stroke: black;"></line><line transform="translate(339.0625,255.1045602730769)" x2="0" y2="-6.569658076923105" style="fill: none; stroke: black;"></line><line transform="translate(346.3541666666667,256.7876539269231)" x2="0" y2="-2.481827692307718" style="fill: none; stroke: black;"></line><line transform="translate(353.6458333333333,252.29738258076924)" x2="0" y2="-5.252630961538443" style="fill: none; stroke: black;"></line><line transform="translate(360.9375,249.7717781576923)" x2="0" y2="-1.8507346153846527" style="fill: none; stroke: black;"></line><line transform="translate(368.2291666666667,258.1738125807692)" x2="0" y2="-0.5887307692307786" style="fill: none; stroke: black;"></line><line transform="translate(375.5208333333333,257.7059225807692)" x2="0" y2="-4.584159038461507" style="fill: none; stroke: black;"></line><line transform="translate(382.8125,268.0807737346154)" x2="0" y2="-3.926899423076918" style="fill: none; stroke: black;"></line><line transform="translate(390.1041666666667,260.42592835)" x2="0" y2="-1.433250192307753" style="fill: none; stroke: black;"></line><line transform="translate(397.3958333333333,264.6236814269231)" x2="0" y2="-5.922826346153897" style="fill: none; stroke: black;"></line><line transform="translate(404.6875,271.6542429653846)" x2="0" y2="-6.224876538461501" style="fill: none; stroke: black;"></line><line transform="translate(411.9791666666667,269.16966296538465)" x2="0" y2="-0.9686003846154563" style="fill: none; stroke: black;"></line><line transform="translate(419.2708333333333,271.2584762346154)" x2="0" y2="-3.0132744230769504" style="fill: none; stroke: black;"></line><line transform="translate(426.5625,269.01303354230765)" x2="0" y2="-1.8489076923076482" style="fill: none; stroke: black;"></line><line transform="translate(433.8541666666667,267.4137018115385)" x2="0" y2="-0.3509786538461981" style="fill: none; stroke: black;"></line><line transform="translate(441.1458333333333,269.4548560423077)" x2="0" y2="-3.176122884615438" style="fill: none; stroke: black;"></line><line transform="translate(448.4375,257.83684238846155)" x2="0" y2="-2.541839423076908" style="fill: none; stroke: black;"></line><line transform="translate(455.7291666666667,257.5792931576923)" x2="0" y2="-0.48759384615379986" style="fill: none; stroke: black;"></line><line transform="translate(463.0208333333333,257.13180604230774)" x2="0" y2="-4.044532692307769" style="fill: none; stroke: black;"></line><line transform="translate(470.3125,257.27496335)" x2="0" y2="-0.035077692307709185" style="fill: none; stroke: black;"></line><line transform="translate(477.6041666666667,243.05653988846154)" x2="0" y2="-8.938162884615338" style="fill: none; stroke: black;"></line><line transform="translate(484.8958333333333,230.82655950384617)" x2="0" y2="-6.174037500000054" style="fill: none; stroke: black;"></line><line transform="translate(492.1875,254.6297281576923)" x2="0" y2="-4.399420576923092" style="fill: none; stroke: black;"></line><line transform="translate(499.4791666666667,326.3897100807692)" x2="0" y2="-3.3312265384615216" style="fill: none; stroke: black;"></line><line transform="translate(506.7708333333333,326.6093177730769)" x2="0" y2="-1.7407173076923073" style="fill: none; stroke: black;"></line><line transform="translate(514.0625,325.5702925807692)" x2="0" y2="-0.4663698076922742" style="fill: none; stroke: black;"></line><line transform="translate(521.3541666666667,322.1008400807692)" x2="0" y2="-0.47438980769231875" style="fill: none; stroke: black;"></line><line transform="translate(528.6458333333334,266.6514527730769)" x2="0" y2="-0.5345086538461601" style="fill: none; stroke: black;"></line><line transform="translate(535.9375000000001,264.82362873461534)" x2="0" y2="-5.156110192307665" style="fill: none; stroke: black;"></line><line transform="translate(543.2291666666667,264.11105911923073)" x2="0" y2="-0.07808192307686568" style="fill: none; stroke: black;"></line><line transform="translate(550.5208333333334,269.10948623461536)" x2="0" y2="-0.351604230769226" style="fill: none; stroke: black;"></line><line transform="translate(557.8125000000001,258.7477918115385)" x2="0" y2="-3.3345507692307876" style="fill: none; stroke: black;"></line><line transform="translate(565.1041666666667,268.78340585)" x2="0" y2="-0.8982648076922715" style="fill: none; stroke: black;"></line><line transform="translate(572.3958333333334,278.9148616192308)" x2="0" y2="-2.8557419230769483" style="fill: none; stroke: black;"></line><line transform="translate(579.6875000000001,253.73407911923076)" x2="0" y2="-0.4000590384615066" style="fill: none; stroke: black;"></line><line transform="translate(586.9791666666667,254.89483469615385)" x2="0" y2="-1.9238617307692607" style="fill: none; stroke: black;"></line><line transform="translate(594.2708333333334,256.34469585)" x2="0" y2="-0.49174807692310196" style="fill: none; stroke: black;"></line><line transform="translate(601.5625000000001,208.24292238846152)" x2="0" y2="-0.990197500000022" style="fill: none; stroke: black;"></line><line transform="translate(608.8541666666667,208.3491560423077)" x2="0" y2="-1.6540125000000216" style="fill: none; stroke: black;"></line><line transform="translate(616.1458333333334,208.03041008076917)" x2="0" y2="-0.1231324999998833" style="fill: none; stroke: black;"></line><line transform="translate(623.4375000000001,206.3076450807692)" x2="0" y2="-0.9328676923076387" style="fill: none; stroke: black;"></line><line transform="translate(630.7291666666667,207.78465296538462)" x2="0" y2="-0.1990638461538765" style="fill: none; stroke: black;"></line><line transform="translate(638.0208333333334,207.5003850807692)" x2="0" y2="-0.030003269230803653" style="fill: none; stroke: black;"></line><line transform="translate(645.3125000000001,208.6775562346154)" x2="0" y2="-1.9390051923076612" style="fill: none; stroke: black;"></line><line transform="translate(652.6041666666667,208.53404161923078)" x2="0" y2="-2.0785309615384904" style="fill: none; stroke: black;"></line><line transform="translate(659.8958333333334,210.01546681153843)" x2="0" y2="-3.817860961538429" style="fill: none; stroke: black;"></line><line transform="translate(667.1875000000001,208.39966181153846)" x2="0" y2="-2.1324928846154307" style="fill: none; stroke: black;"></line><line transform="translate(674.4791666666667,209.90693411923075)" x2="0" y2="-2.202789999999993" style="fill: none; stroke: black;"></line><line transform="translate(681.7708333333334,203.93323488846153)" x2="0" y2="-1.2243157692308273" style="fill: none; stroke: black;"></line><line transform="translate(689.0625000000001,202.43824065769235)" x2="0" y2="-1.261778269230831" style="fill: none; stroke: black;"></line><line transform="translate(696.3541666666667,204.25729931153847)" x2="0" y2="-10.298831538461513" style="fill: none; stroke: black;"></line><line transform="translate(703.6458333333334,203.68078796538464)" x2="0" y2="-3.160798076923129" style="fill: none; stroke: black;"></line><line transform="translate(710.9375000000001,445.3184166192308)" x2="0" y2="-0.011959615384625977" style="fill: none; stroke: black;"></line><line transform="translate(718.2291666666667,444.7512100807692)" x2="0" y2="-0.4959307692307675" style="fill: none; stroke: black;"></line><line transform="translate(725.5208333333334,444.27211950384617)" x2="0" y2="-0.4902025000000094" style="fill: none; stroke: black;"></line><line transform="translate(732.8125000000001,443.83420661923077)" x2="0" y2="-0.20927538461540962" style="fill: none; stroke: black;"></line><line transform="translate(740.1041666666667,444.4728712346154)" x2="0" y2="-0.20844538461540196" style="fill: none; stroke: black;"></line><line transform="translate(747.3958333333334,443.94321700384614)" x2="0" y2="-0.8832994230768918" style="fill: none; stroke: black;"></line><line transform="translate(754.6875000000001,457.69667969615386)" x2="0" y2="-0.46509288461538745" style="fill: none; stroke: black;"></line><line transform="translate(761.9791666666667,456.4105862346154)" x2="0" y2="-0.474591730769248" style="fill: none; stroke: black;"></line><line transform="translate(769.2708333333334,236.1887835423077)" x2="0" y2="-0.15326250000003938" style="fill: none; stroke: black;"></line><line transform="translate(776.5625000000001,259.03373469615383)" x2="0" y2="-1.6703774999999723" style="fill: none; stroke: black;"></line><line transform="translate(783.8541666666667,259.7533956576923)" x2="0" y2="-2.8107003846154157" style="fill: none; stroke: black;"></line><line transform="translate(791.1458333333334,269.14473142692304)" x2="0" y2="-3.211918653846112" style="fill: none; stroke: black;"></line><line transform="translate(798.4375000000001,276.05085546538464)" x2="0" y2="-6.179196538461554" style="fill: none; stroke: black;"></line><line transform="translate(805.7291666666667,278.6093327730769)" x2="0" y2="-3.2243988461538606" style="fill: none; stroke: black;"></line><line transform="translate(813.0208333333334,272.8417770038461)" x2="0" y2="-0.6056394230769229" style="fill: none; stroke: black;"></line><line transform="translate(820.3125000000001,270.9216966192307)" x2="0" y2="-0.8137532692306877" style="fill: none; stroke: black;"></line><line transform="translate(827.6041666666667,274.834401426923)" x2="0" y2="-0.5313748076922593" style="fill: none; stroke: black;"></line><line transform="translate(834.8958333333334,221.46062123461542)" x2="0" y2="-0.5637801923077177" style="fill: none; stroke: black;"></line><line transform="translate(842.1875000000001,219.68121488846157)" x2="0" y2="-1.1574651923077113" style="fill: none; stroke: black;"></line><line transform="translate(849.4791666666667,218.14504738846153)" x2="0" y2="-4.893963076923114" style="fill: none; stroke: black;"></line><line transform="translate(856.7708333333334,276.6550106576923)" x2="0" y2="-1.4740296153846089" style="fill: none; stroke: black;"></line><line transform="translate(864.0625000000001,278.1545575807692)" x2="0" y2="-1.5667694230768916" style="fill: none; stroke: black;"></line><line transform="translate(871.3541666666667,273.58828758076925)" x2="0" y2="-0.6373898076923297" style="fill: none; stroke: black;"></line><line transform="translate(878.6458333333334,273.66041546538463)" x2="0" y2="-1.7310311538461747" style="fill: none; stroke: black;"></line><line transform="translate(885.9375000000001,273.34848335)" x2="0" y2="-11.90126942307694" style="fill: none; stroke: black;"></line><line transform="translate(893.2291666666667,281.9796841192308)" x2="0" y2="-2.10566096153849" style="fill: none; stroke: black;"></line><line transform="translate(900.5208333333334,275.24126373461536)" x2="0" y2="-2.7645551923076823" style="fill: none; stroke: black;"></line><line transform="translate(907.8125000000001,276.52030700384614)" x2="0" y2="-9.007814615384632" style="fill: none; stroke: black;"></line><line transform="translate(915.1041666666667,263.5019831576923)" x2="0" y2="-0.18741249999999354" style="fill: none; stroke: black;"></line><line transform="translate(922.3958333333334,265.0529110423077)" x2="0" y2="-1.5954388461538542" style="fill: none; stroke: black;"></line><line transform="translate(929.6875000000001,260.6021775807692)" x2="0" y2="-1.2146955769230203" style="fill: none; stroke: black;"></line><line transform="translate(936.9791666666667,263.19704335)" x2="0" y2="-1.7650434615384825" style="fill: none; stroke: black;"></line><line transform="translate(944.2708333333334,258.2935131576923)" x2="0" y2="-2.315108846153862" style="fill: none; stroke: black;"></line><line transform="translate(951.5625000000001,269.62063815769227)" x2="0" y2="-6.648004423076884" style="fill: none; stroke: black;"></line><line transform="translate(958.8541666666667,227.33800700384614)" x2="0" y2="-3.675085384615329" style="fill: none; stroke: black;"></line><line transform="translate(966.1458333333334,487.17674950384617)" x2="0" y2="-0.15609634615384493" style="fill: none; stroke: black;"></line><line transform="translate(973.4375000000001,222.51302354230774)" x2="0" y2="-3.3413428846154147" style="fill: none; stroke: black;"></line><line transform="translate(980.7291666666667,221.42213238846153)" x2="0" y2="-0.8299901923077186" style="fill: none; stroke: black;"></line><line transform="translate(988.0208333333334,225.92856565769227)" x2="0" y2="-0.08272576923076258" style="fill: none; stroke: black;"></line><line transform="translate(995.3125000000001,227.10659508076924)" x2="0" y2="-17.774340000000052" style="fill: none; stroke: black;"></line><line transform="translate(1002.6041666666667,230.64312373461536)" x2="0" y2="-3.728737692307675" style="fill: none; stroke: black;"></line><line transform="translate(1009.8958333333334,228.62097758076925)" x2="0" y2="-0.17556923076926978" style="fill: none; stroke: black;"></line><line transform="translate(1017.1875000000001,224.0212404653846)" x2="0" y2="-6.114356153846188" style="fill: none; stroke: black;"></line><line transform="translate(1024.4791666666667,216.0906514269231)" x2="0" y2="-0.5073253846153989" style="fill: none; stroke: black;"></line><line transform="translate(1031.7708333333333,214.99537104230768)" x2="0" y2="-5.351400384615317" style="fill: none; stroke: black;"></line><line transform="translate(1039.0625,215.8789187346154)" x2="0" y2="-1.1894996153846478" style="fill: none; stroke: black;"></line><line transform="translate(1046.3541666666667,218.33769585)" x2="0" y2="-1.4992930769230952" style="fill: none; stroke: black;"></line><line transform="translate(1053.6458333333333,217.13122950384616)" x2="0" y2="-12.950747500000034" style="fill: none; stroke: black;"></line><line transform="translate(1060.9375,206.64354488846146)" x2="0" y2="-2.3921955769230294" style="fill: none; stroke: black;"></line><line transform="translate(1068.2291666666667,449.72865911923077)" x2="0" y2="-1.1514421153846115" style="fill: none; stroke: black;"></line><line transform="translate(1075.5208333333333,448.90350373461536)" x2="0" y2="-0.38654153846152894" style="fill: none; stroke: black;"></line><line transform="translate(1082.8125,448.84170469615384)" x2="0" y2="-0.30976230769232416" style="fill: none; stroke: black;"></line><line transform="translate(1090.1041666666667,447.5150031576923)" x2="0" y2="-1.1951538461538576" style="fill: none; stroke: black;"></line><line transform="translate(1097.3958333333333,447.1614700807692)" x2="0" y2="-1.6432686538461212" style="fill: none; stroke: black;"></line><line transform="translate(1104.6875,445.9351862346154)" x2="0" y2="-0.062361346153863906" style="fill: none; stroke: black;"></line><line transform="translate(1111.9791666666667,446.53989719615385)" x2="0" y2="-0.8073319230769016" style="fill: none; stroke: black;"></line><line transform="translate(1119.2708333333333,197.38670623461536)" x2="0" y2="-3.8210563461538527" style="fill: none; stroke: black;"></line><line transform="translate(1126.5625,199.03054700384615)" x2="0" y2="-4.319708846153844" style="fill: none; stroke: black;"></line><line transform="translate(1133.8541666666667,201.00036969615383)" x2="0" y2="-2.1163474999999607" style="fill: none; stroke: black;"></line><line transform="translate(1141.1458333333333,195.50865219615383)" x2="0" y2="-9.461716923076892" style="fill: none; stroke: black;"></line><line transform="translate(1148.4375,196.88596431153843)" x2="0" y2="-0.6039701923076564" style="fill: none; stroke: black;"></line><line transform="translate(1155.7291666666667,206.6068562346154)" x2="0" y2="-6.324660961538541" style="fill: none; stroke: black;"></line><line transform="translate(1163.0208333333333,206.57515008076928)" x2="0" y2="-1.5513869230770183" style="fill: none; stroke: black;"></line><line transform="translate(1170.3125,205.3870304653846)" x2="0" y2="-0.7048326923077184" style="fill: none; stroke: black;"></line><line transform="translate(1177.6041666666667,208.19954450384614)" x2="0" y2="-5.09249730769227" style="fill: none; stroke: black;"></line><line transform="translate(1184.8958333333333,206.26359988846156)" x2="0" y2="-0.9274540384615761" style="fill: none; stroke: black;"></line><line transform="translate(1192.1875,204.72648161923075)" x2="0" y2="-1.256490384615347" style="fill: none; stroke: black;"></line><line transform="translate(1199.4791666666667,206.46059950384614)" x2="0" y2="-4.673630384615365" style="fill: none; stroke: black;"></line><line transform="translate(1206.7708333333333,210.77286335000002)" x2="0" y2="-3.7802028846154485" style="fill: none; stroke: black;"></line><line transform="translate(1214.0625,211.06138488846153)" x2="0" y2="-1.9585146153846154" style="fill: none; stroke: black;"></line><line transform="translate(1221.3541666666667,209.10019623461534)" x2="0" y2="-0.8322807692307492" style="fill: none; stroke: black;"></line><line transform="translate(1228.6458333333333,252.28570181153844)" x2="0" y2="-1.8292736538461725" style="fill: none; stroke: black;"></line><line transform="translate(1235.9375,301.40623854230773)" x2="0" y2="-0.24964384615390145" style="fill: none; stroke: black;"></line><line transform="translate(1243.2291666666667,301.92372085)" x2="0" y2="-0.671306538461522" style="fill: none; stroke: black;"></line><line transform="translate(1250.5208333333333,298.30592642692307)" x2="0" y2="-1.3633396153845752" style="fill: none; stroke: black;"></line><line transform="translate(1257.8125,299.64283508076926)" x2="0" y2="-0.2295303846153729" style="fill: none; stroke: black;"></line><line transform="translate(1265.1041666666667,294.6155600807692)" x2="0" y2="-0.7096149999999852" style="fill: none; stroke: black;"></line><line transform="translate(1272.3958333333333,300.8263710423077)" x2="0" y2="-0.6288121153846191" style="fill: none; stroke: black;"></line><line transform="translate(1279.6875,297.59019373461535)" x2="0" y2="-0.15839076923077755" style="fill: none; stroke: black;"></line><line transform="translate(1286.9791666666667,299.3060012346154)" x2="0" y2="-2.3609761538461385" style="fill: none; stroke: black;"></line><line transform="translate(1294.2708333333333,300.30182450384615)" x2="0" y2="-2.201335192307681" style="fill: none; stroke: black;"></line><line transform="translate(1301.5625,300.77953200384616)" x2="0" y2="-0.5937040384615102" style="fill: none; stroke: black;"></line><line transform="translate(1308.8541666666667,301.8368239269231)" x2="0" y2="-1.0847646153846426" style="fill: none; stroke: black;"></line><line transform="translate(1316.1458333333333,303.4472356576923)" x2="0" y2="-2.9580619230769116" style="fill: none; stroke: black;"></line><line transform="translate(1323.4375,300.35336488846156)" x2="0" y2="-1.3166034615384774" style="fill: none; stroke: black;"></line><line transform="translate(1330.7291666666667,301.08896911923074)" x2="0" y2="-0.47582461538456755" style="fill: none; stroke: black;"></line><line transform="translate(1338.0208333333333,303.88421431153847)" x2="0" y2="-0.061823461538438096" style="fill: none; stroke: black;"></line><line transform="translate(1345.3125,304.11750488846155)" x2="0" y2="-1.0214080769231373" style="fill: none; stroke: black;"></line><line transform="translate(1352.6041666666667,305.0621506576923)" x2="0" y2="-3.376265384615408" style="fill: none; stroke: black;"></line><line transform="translate(1359.8958333333333,304.7685171961539)" x2="0" y2="-0.28682576923080205" style="fill: none; stroke: black;"></line><line transform="translate(1367.1875,303.3163806576923)" x2="0" y2="-1.3314534615385014" style="fill: none; stroke: black;"></line><line transform="translate(1374.4791666666667,302.39426700384615)" x2="0" y2="-3.699989999999957" style="fill: none; stroke: black;"></line><line transform="translate(1381.7708333333333,300.4620218115385)" x2="0" y2="-1.39097134615389" style="fill: none; stroke: black;"></line><line transform="translate(1389.0625,300.81587161923073)" x2="0" y2="-2.466229038461506" style="fill: none; stroke: black;"></line><line transform="translate(1396.3541666666667,300.58783527307696)" x2="0" y2="-1.8962375000000407" style="fill: none; stroke: black;"></line></g><g class="mark-rule role-mark layer_1_marks"><line transform="translate(3.6458333333333335,498.9552262346154)" x2="0" y2="-1.0222973076923267" style="fill: none; stroke: black;"></line><line transform="translate(10.9375,499.1511312346154)" x2="0" y2="-0.5479790384615058" style="fill: none; stroke: black;"></line><line transform="translate(18.229166666666668,496.4610268115385)" x2="0" y2="-0.2922571153846434" style="fill: none; stroke: black;"></line><line transform="translate(25.520833333333332,497.1782693115385)" x2="0" y2="-1.103077307692331" style="fill: none; stroke: black;"></line><line transform="translate(32.8125,496.41059950384613)" x2="0" y2="-0.5721790384615133" style="fill: none; stroke: black;"></line><line transform="translate(40.10416666666667,490.6471370038461)" x2="0" y2="-3.286309807692305" style="fill: none; stroke: black;"></line><line transform="translate(47.395833333333336,490.97484623461537)" x2="0" y2="-3.037339038461539" style="fill: none; stroke: black;"></line><line transform="translate(54.68750000000001,490.85639969615386)" x2="0" y2="-3.1557815384615537" style="fill: none; stroke: black;"></line><line transform="translate(61.97916666666667,491.50001411923074)" x2="0" y2="-4.16394115384611" style="fill: none; stroke: black;"></line><line transform="translate(69.27083333333333,491.20980258076924)" x2="0" y2="-2.341980576923106" style="fill: none; stroke: black;"></line><line transform="translate(76.5625,491.45183873461536)" x2="0" y2="-2.778333461538466" style="fill: none; stroke: black;"></line><line transform="translate(83.85416666666667,491.34695431153847)" x2="0" y2="-2.189428076923093" style="fill: none; stroke: black;"></line><line transform="translate(91.14583333333333,491.5059656576923)" x2="0" y2="-2.7552790384615378" style="fill: none; stroke: black;"></line><line transform="translate(98.4375,491.3435718115385)" x2="0" y2="-2.5804990384615394" style="fill: none; stroke: black;"></line><line transform="translate(105.72916666666667,458.73139931153844)" x2="0" y2="-2.6375342307692335" style="fill: none; stroke: black;"></line><line transform="translate(113.02083333333333,235.29795873461535)" x2="0" y2="-4.291413653846121" style="fill: none; stroke: black;"></line><line transform="translate(120.3125,246.1823225807692)" x2="0" y2="-0.8226555769230686" style="fill: none; stroke: black;"></line><line transform="translate(127.60416666666667,489.93789161923075)" x2="0" y2="-3.2306294230768913" style="fill: none; stroke: black;"></line><line transform="translate(134.89583333333334,248.10687104230772)" x2="0" y2="-2.005842692307681" style="fill: none; stroke: black;"></line><line transform="translate(142.18750000000003,242.6902589269231)" x2="0" y2="-8.341648846153873" style="fill: none; stroke: black;"></line><line transform="translate(149.47916666666669,241.81800931153845)" x2="0" y2="-4.015444807692347" style="fill: none; stroke: black;"></line><line transform="translate(156.77083333333334,269.62372161923076)" x2="0" y2="-14.97848730769229" style="fill: none; stroke: black;"></line><line transform="translate(164.06250000000003,325.3494829653846)" x2="0" y2="-0.47675788461538104" style="fill: none; stroke: black;"></line><line transform="translate(171.35416666666669,325.7467287346154)" x2="0" y2="-2.8500961538461524" style="fill: none; stroke: black;"></line><line transform="translate(178.64583333333334,319.32327911923073)" x2="0" y2="-5.599193846153867" style="fill: none; stroke: black;"></line><line transform="translate(185.93750000000003,317.3073781576923)" x2="0" y2="-2.491571923076947" style="fill: none; stroke: black;"></line><line transform="translate(193.22916666666669,329.8345279653846)" x2="0" y2="-4.680857307692349" style="fill: none; stroke: black;"></line><line transform="translate(200.52083333333334,276.43475335)" x2="0" y2="-1.569923846153813" style="fill: none; stroke: black;"></line><line transform="translate(207.81250000000003,278.82525508076924)" x2="0" y2="-10.33320365384617" style="fill: none; stroke: black;"></line><line transform="translate(215.10416666666669,224.0338623884615)" x2="0" y2="-35.693067884615346" style="fill: none; stroke: black;"></line><line transform="translate(222.39583333333334,240.56588411923082)" x2="0" y2="-77.73219961538473" style="fill: none; stroke: black;"></line><line transform="translate(229.68750000000003,256.2217910423077)" x2="0" y2="-2.486140000000006" style="fill: none; stroke: black;"></line><line transform="translate(236.97916666666669,257.15724392692306)" x2="0" y2="-103.97897730769228" style="fill: none; stroke: black;"></line><line transform="translate(244.27083333333334,235.27289315769235)" x2="0" y2="-210.81022307692308" style="fill: none; stroke: black;"></line><line transform="translate(251.56250000000003,254.89387546538464)" x2="0" y2="-3.2937659615384973" style="fill: none; stroke: black;"></line><line transform="translate(258.8541666666667,213.6697793115385)" x2="0" y2="-4.010078269230803" style="fill: none; stroke: black;"></line><line transform="translate(266.1458333333333,236.22095277307693)" x2="0" y2="-8.19368750000001" style="fill: none; stroke: black;"></line><line transform="translate(273.4375,255.18546104230768)" x2="0" y2="-26.194670961538463" style="fill: none; stroke: black;"></line><line transform="translate(280.7291666666667,258.96720392692305)" x2="0" y2="-46.63402730769229" style="fill: none; stroke: black;"></line><line transform="translate(288.0208333333333,189.3325927730769)" x2="0" y2="-2.0238653846154193" style="fill: none; stroke: black;"></line><line transform="translate(295.3125,182.1527996961538)" x2="0" y2="-2.0738907692307293" style="fill: none; stroke: black;"></line><line transform="translate(302.6041666666667,188.81447334999996)" x2="0" y2="-0.9693776923076598" style="fill: none; stroke: black;"></line><line transform="translate(309.8958333333333,185.9673175807692)" x2="0" y2="-0.3219353846153581" style="fill: none; stroke: black;"></line><line transform="translate(317.1875,185.2920548884615)" x2="0" y2="-1.3195596153846054" style="fill: none; stroke: black;"></line><line transform="translate(324.4791666666667,244.98709585)" x2="0" y2="-8.737209807692352" style="fill: none; stroke: black;"></line><line transform="translate(331.7708333333333,241.72876911923072)" x2="0" y2="-1.0361463461538278" style="fill: none; stroke: black;"></line><line transform="translate(339.0625,245.47265969615384)" x2="0" y2="-27.01617692307687" style="fill: none; stroke: black;"></line><line transform="translate(346.3541666666667,246.75372488846153)" x2="0" y2="-3.230287692307627" style="fill: none; stroke: black;"></line><line transform="translate(353.6458333333333,242.45684681153847)" x2="0" y2="-36.43776096153846" style="fill: none; stroke: black;"></line><line transform="translate(360.9375,244.33107104230766)" x2="0" y2="-40.37086865384612" style="fill: none; stroke: black;"></line><line transform="translate(368.2291666666667,237.28028008076922)" x2="0" y2="-28.97541576923078" style="fill: none; stroke: black;"></line><line transform="translate(375.5208333333333,229.37689738846154)" x2="0" y2="-27.57586057692305" style="fill: none; stroke: black;"></line><line transform="translate(382.8125,256.10065431153845)" x2="0" y2="-4.327214999999967" style="fill: none; stroke: black;"></line><line transform="translate(390.1041666666667,239.2767156576923)" x2="0" y2="-3.9813884615384154" style="fill: none; stroke: black;"></line><line transform="translate(397.3958333333333,254.84266988846153)" x2="0" y2="-6.672433653846156" style="fill: none; stroke: black;"></line><line transform="translate(404.6875,253.4956548884615)" x2="0" y2="-4.224348461538426" style="fill: none; stroke: black;"></line><line transform="translate(411.9791666666667,260.8550106576923)" x2="0" y2="-1.839688461538401" style="fill: none; stroke: black;"></line><line transform="translate(419.2708333333333,266.21718604230773)" x2="0" y2="-0.29587730769236487" style="fill: none; stroke: black;"></line><line transform="translate(426.5625,243.34757296538464)" x2="0" y2="-5.433965384615419" style="fill: none; stroke: black;"></line><line transform="translate(433.8541666666667,266.7597841192308)" x2="0" y2="-21.956375192307775" style="fill: none; stroke: black;"></line><line transform="translate(441.1458333333333,262.83821123461536)" x2="0" y2="-10.522317307692276" style="fill: none; stroke: black;"></line><line transform="translate(448.4375,246.6670529653846)" x2="0" y2="-3.3076671153845894" style="fill: none; stroke: black;"></line><line transform="translate(455.7291666666667,253.63910661923077)" x2="0" y2="-6.5773207692307665" style="fill: none; stroke: black;"></line><line transform="translate(463.0208333333333,244.08162585)" x2="0" y2="-1.3054644230768702" style="fill: none; stroke: black;"></line><line transform="translate(470.3125,252.58101969615385)" x2="0" y2="-16.784473461538454" style="fill: none; stroke: black;"></line><line transform="translate(477.6041666666667,233.47241469615386)" x2="0" y2="-11.039909423076892" style="fill: none; stroke: black;"></line><line transform="translate(484.8958333333333,219.96349642692303)" x2="0" y2="-7.922191346153795" style="fill: none; stroke: black;"></line><line transform="translate(492.1875,239.58534334999996)" x2="0" y2="-14.418346538461492" style="fill: none; stroke: black;"></line><line transform="translate(499.4791666666667,306.3830141192308)" x2="0" y2="-3.986448076923068" style="fill: none; stroke: black;"></line><line transform="translate(506.7708333333333,323.9616623884615)" x2="0" y2="-1.5030319230768328" style="fill: none; stroke: black;"></line><line transform="translate(514.0625,323.7655673884615)" x2="0" y2="-1.8367696153845827" style="fill: none; stroke: black;"></line><line transform="translate(521.3541666666667,321.3448781576923)" x2="0" y2="-0.40927846153846303" style="fill: none; stroke: black;"></line><line transform="translate(528.6458333333334,241.11653335)" x2="0" y2="-121.23847230769229" style="fill: none; stroke: black;"></line><line transform="translate(535.9375000000001,254.6328904653846)" x2="0" y2="-0.5000913461538516" style="fill: none; stroke: black;"></line><line transform="translate(543.2291666666667,250.6654564269231)" x2="0" y2="-45.57958326923077" style="fill: none; stroke: black;"></line><line transform="translate(550.5208333333334,254.80373527307694)" x2="0" y2="-1.7177594230769557" style="fill: none; stroke: black;"></line><line transform="translate(557.8125000000001,233.7935423884615)" x2="0" y2="-23.280339038461477" style="fill: none; stroke: black;"></line><line transform="translate(565.1041666666667,258.95715835)" x2="0" y2="-0.8246023076923166" style="fill: none; stroke: black;"></line><line transform="translate(572.3958333333334,272.9086768115385)" x2="0" y2="-0.40101269230774506" style="fill: none; stroke: black;"></line><line transform="translate(579.6875000000001,250.4794606576923)" x2="0" y2="-3.0992126923077024" style="fill: none; stroke: black;"></line><line transform="translate(586.9791666666667,251.53318758076924)" x2="0" y2="-6.5244582692307915" style="fill: none; stroke: black;"></line><line transform="translate(594.2708333333334,254.14850046538461)" x2="0" y2="-0.19645653846151845" style="fill: none; stroke: black;"></line><line transform="translate(601.5625000000001,205.03660777307692)" x2="0" y2="-7.673675961538436" style="fill: none; stroke: black;"></line><line transform="translate(608.8541666666667,206.10475623461537)" x2="0" y2="-4.228755961538468" style="fill: none; stroke: black;"></line><line transform="translate(616.1458333333334,203.5058585423077)" x2="0" y2="-4.724950192307745" style="fill: none; stroke: black;"></line><line transform="translate(623.4375000000001,202.47885719615385)" x2="0" y2="-1.0536569230769146" style="fill: none; stroke: black;"></line><line transform="translate(630.7291666666667,206.36451431153841)" x2="0" y2="-7.745414423076909" style="fill: none; stroke: black;"></line><line transform="translate(638.0208333333334,206.79195315769232)" x2="0" y2="-2.8823050000000308" style="fill: none; stroke: black;"></line><line transform="translate(645.3125000000001,205.53410527307693)" x2="0" y2="-0.458647692307693" style="fill: none; stroke: black;"></line><line transform="translate(652.6041666666667,204.70650642692306)" x2="0" y2="-0.4097792307692316" style="fill: none; stroke: black;"></line><line transform="translate(659.8958333333334,203.7183302730769)" x2="0" y2="-0.730633076923084" style="fill: none; stroke: black;"></line><line transform="translate(667.1875000000001,204.36120719615388)" x2="0" y2="-1.8843440384615633" style="fill: none; stroke: black;"></line><line transform="translate(674.4791666666667,206.8355875807692)" x2="0" y2="-29.12069365384616" style="fill: none; stroke: black;"></line><line transform="translate(681.7708333333334,198.78968719615386)" x2="0" y2="-7.859787115384677" style="fill: none; stroke: black;"></line><line transform="translate(689.0625000000001,197.71697431153848)" x2="0" y2="-1.9410061538462173" style="fill: none; stroke: black;"></line><line transform="translate(696.3541666666667,170.78106142692315)" x2="0" y2="-8.941571730769283" style="fill: none; stroke: black;"></line><line transform="translate(703.6458333333334,193.41270258076918)" x2="0" y2="-8.950133461538428" style="fill: none; stroke: black;"></line><line transform="translate(710.9375000000001,443.28966258076923)" x2="0" y2="-15.846953846153838" style="fill: none; stroke: black;"></line><line transform="translate(718.2291666666667,440.2595418115385)" x2="0" y2="-2.658793653846203" style="fill: none; stroke: black;"></line><line transform="translate(725.5208333333334,442.5861079653846)" x2="0" y2="-3.811646923076921" style="fill: none; stroke: black;"></line><line transform="translate(732.8125000000001,441.7363837346154)" x2="0" y2="-0.7314103846154012" style="fill: none; stroke: black;"></line><line transform="translate(740.1041666666667,442.86572200384614)" x2="0" y2="-0.23552499999999554" style="fill: none; stroke: black;"></line><line transform="translate(747.3958333333334,442.21329931153844)" x2="0" y2="-1.18389499999995" style="fill: none; stroke: black;"></line><line transform="translate(754.6875000000001,456.3481575807692)" x2="0" y2="-0.8355990384615097" style="fill: none; stroke: black;"></line><line transform="translate(761.9791666666667,454.2577070038461)" x2="0" y2="-3.990515384615378" style="fill: none; stroke: black;"></line><line transform="translate(769.2708333333334,228.6116550807692)" x2="0" y2="-0.1339330769230287" style="fill: none; stroke: black;"></line><line transform="translate(776.5625000000001,255.18244969615384)" x2="0" y2="-7.020818269230745" style="fill: none; stroke: black;"></line><line transform="translate(783.8541666666667,253.24994681153845)" x2="0" y2="-0.7680559615384368" style="fill: none; stroke: black;"></line><line transform="translate(791.1458333333334,265.1599866192307)" x2="0" y2="-5.114176153846074" style="fill: none; stroke: black;"></line><line transform="translate(798.4375000000001,257.02630008076926)" x2="0" y2="-6.342325961538478" style="fill: none; stroke: black;"></line><line transform="translate(805.7291666666667,270.31460392692304)" x2="0" y2="-1.4345749999999953" style="fill: none; stroke: black;"></line><line transform="translate(813.0208333333334,269.51181008076924)" x2="0" y2="-16.40381730769232" style="fill: none; stroke: black;"></line><line transform="translate(820.3125000000001,250.22744642692308)" x2="0" y2="-0.7912634615384775" style="fill: none; stroke: black;"></line><line transform="translate(827.6041666666667,271.38160681153846)" x2="0" y2="-5.06178749999998" style="fill: none; stroke: black;"></line><line transform="translate(834.8958333333334,218.65670835000003)" x2="0" y2="-9.429828846153839" style="fill: none; stroke: black;"></line><line transform="translate(842.1875000000001,217.4742818115385)" x2="0" y2="-7.883549230769233" style="fill: none; stroke: black;"></line><line transform="translate(849.4791666666667,200.69742950384614)" x2="0" y2="-2.730383653846161" style="fill: none; stroke: black;"></line><line transform="translate(856.7708333333334,271.88571892692306)" x2="0" y2="-0.3234923076923337" style="fill: none; stroke: black;"></line><line transform="translate(864.0625000000001,274.4945616192308)" x2="0" y2="-2.050810192307722" style="fill: none; stroke: black;"></line><line transform="translate(871.3541666666667,269.68017950384615)" x2="0" y2="-3.7367378846153656" style="fill: none; stroke: black;"></line><line transform="translate(878.6458333333334,265.31886681153844)" x2="0" y2="-4.912981923076927" style="fill: none; stroke: black;"></line><line transform="translate(885.9375000000001,247.9927731576923)" x2="0" y2="-10.205792307692292" style="fill: none; stroke: black;"></line><line transform="translate(893.2291666666667,278.0051479653846)" x2="0" y2="-0.3718609615384594" style="fill: none; stroke: black;"></line><line transform="translate(900.5208333333334,260.37592988846154)" x2="0" y2="-13.566212692307687" style="fill: none; stroke: black;"></line><line transform="translate(907.8125000000001,256.53952969615386)" x2="0" y2="-12.177258269230805" style="fill: none; stroke: black;"></line><line transform="translate(915.1041666666667,253.62872719615387)" x2="0" y2="-9.390685000000076" style="fill: none; stroke: black;"></line><line transform="translate(922.3958333333334,252.5588518115385)" x2="0" y2="-19.74245807692313" style="fill: none; stroke: black;"></line><line transform="translate(929.6875000000001,227.28186238846155)" x2="0" y2="-7.372982307692325" style="fill: none; stroke: black;"></line><line transform="translate(936.9791666666667,245.43545431153845)" x2="0" y2="-13.911184038461528" style="fill: none; stroke: black;"></line><line transform="translate(944.2708333333334,253.01473758076924)" x2="0" y2="-19.11539826923081" style="fill: none; stroke: black;"></line><line transform="translate(951.5625000000001,254.66835738846154)" x2="0" y2="-12.4319286538462" style="fill: none; stroke: black;"></line><line transform="translate(958.8541666666667,202.63957719615382)" x2="0" y2="-50.09742057692307" style="fill: none; stroke: black;"></line><line transform="translate(966.1458333333334,486.9299062346154)" x2="0" y2="-0.36658019230770833" style="fill: none; stroke: black;"></line><line transform="translate(973.4375000000001,209.1438762346154)" x2="0" y2="-7.955679807692377" style="fill: none; stroke: black;"></line><line transform="translate(980.7291666666667,213.30849758076926)" x2="0" y2="-0.739102307692292" style="fill: none; stroke: black;"></line><line transform="translate(988.0208333333334,223.34867911923078)" x2="0" y2="-13.943432692307681" style="fill: none; stroke: black;"></line><line transform="translate(995.3125000000001,207.3898346961538)" x2="0" y2="-13.333930384615314" style="fill: none; stroke: black;"></line><line transform="translate(1002.6041666666667,224.20462642692308)" x2="0" y2="-1.1144300000000271" style="fill: none; stroke: black;"></line><line transform="translate(1009.8958333333334,226.90362065769233)" x2="0" y2="-2.697147500000085" style="fill: none; stroke: black;"></line><line transform="translate(1017.1875000000001,207.26453354230773)" x2="0" y2="-13.723178846153871" style="fill: none; stroke: black;"></line><line transform="translate(1024.4791666666667,208.1061135423077)" x2="0" y2="-0.8282030769231028" style="fill: none; stroke: black;"></line><line transform="translate(1031.7708333333333,208.39385700384616)" x2="0" y2="-2.466058846153885" style="fill: none; stroke: black;"></line><line transform="translate(1039.0625,211.65495719615387)" x2="0" y2="-1.785772884615426" style="fill: none; stroke: black;"></line><line transform="translate(1046.3541666666667,212.71867777307688)" x2="0" y2="-10.861101730769178" style="fill: none; stroke: black;"></line><line transform="translate(1053.6458333333333,199.8467631576923)" x2="0" y2="-2.0317580769230403" style="fill: none; stroke: black;"></line><line transform="translate(1060.9375,195.65099161923075)" x2="0" y2="-1.5345157692307794" style="fill: none; stroke: black;"></line><line transform="translate(1068.2291666666667,444.23631911923076)" x2="0" y2="-2.8244492307692326" style="fill: none; stroke: black;"></line><line transform="translate(1075.5208333333333,447.36621161923074)" x2="0" y2="-2.0485407692307263" style="fill: none; stroke: black;"></line><line transform="translate(1082.8125,447.3555554653846)" x2="0" y2="-4.2283671153846285" style="fill: none; stroke: black;"></line><line transform="translate(1090.1041666666667,445.39928681153845)" x2="0" y2="-0.07486000000000104" style="fill: none; stroke: black;"></line><line transform="translate(1097.3958333333333,444.8533839269231)" x2="0" y2="-3.1059321153846327" style="fill: none; stroke: black;"></line><line transform="translate(1104.6875,444.69601450384613)" x2="0" y2="-37.30800403846155" style="fill: none; stroke: black;"></line><line transform="translate(1111.9791666666667,442.1379164269231)" x2="0" y2="-1.280455769230798" style="fill: none; stroke: black;"></line><line transform="translate(1119.2708333333333,187.34336354230766)" x2="0" y2="-1.8429657692307728" style="fill: none; stroke: black;"></line><line transform="translate(1126.5625,182.28130623461544)" x2="0" y2="-8.119097500000066" style="fill: none; stroke: black;"></line><line transform="translate(1133.8541666666667,188.01132258076922)" x2="0" y2="-0.6507844230769138" style="fill: none; stroke: black;"></line><line transform="translate(1141.1458333333333,179.00634873461541)" x2="0" y2="-55.02091134615392" style="fill: none; stroke: black;"></line><line transform="translate(1148.4375,194.64066488846157)" x2="0" y2="-6.423408076923124" style="fill: none; stroke: black;"></line><line transform="translate(1155.7291666666667,199.67676565769233)" x2="0" y2="-0.8175617307692278" style="fill: none; stroke: black;"></line><line transform="translate(1163.0208333333333,200.96147931153848)" x2="0" y2="-0.7426415384616121" style="fill: none; stroke: black;"></line><line transform="translate(1170.3125,201.67600931153845)" x2="0" y2="-5.861564615384623" style="fill: none; stroke: black;"></line><line transform="translate(1177.6041666666667,182.74368335000003)" x2="0" y2="-1.2141836538461916" style="fill: none; stroke: black;"></line><line transform="translate(1184.8958333333333,191.3899881576923)" x2="0" y2="-28.2837144230769" style="fill: none; stroke: black;"></line><line transform="translate(1192.1875,174.24000469615385)" x2="0" y2="-29.000287884615375" style="fill: none; stroke: black;"></line><line transform="translate(1199.4791666666667,199.54407008076925)" x2="0" y2="-5.8420505769231" style="fill: none; stroke: black;"></line><line transform="translate(1206.7708333333333,200.5403062346154)" x2="0" y2="-0.6771255769230606" style="fill: none; stroke: black;"></line><line transform="translate(1214.0625,207.33397046538465)" x2="0" y2="-4.207644807692361" style="fill: none; stroke: black;"></line><line transform="translate(1221.3541666666667,205.45863508076923)" x2="0" y2="-7.141045192307672" style="fill: none; stroke: black;"></line><line transform="translate(1228.6458333333333,239.20289585)" x2="0" y2="-1.038715192307734" style="fill: none; stroke: black;"></line><line transform="translate(1235.9375,297.69647719615386)" x2="0" y2="-4.706808269230805" style="fill: none; stroke: black;"></line><line transform="translate(1243.2291666666667,294.5492162346154)" x2="0" y2="-0.6659207692307518" style="fill: none; stroke: black;"></line><line transform="translate(1250.5208333333333,292.21868642692306)" x2="0" y2="-0.6535486538461441" style="fill: none; stroke: black;"></line><line transform="translate(1257.8125,291.66085585)" x2="0" y2="-6.587566346153892" style="fill: none; stroke: black;"></line><line transform="translate(1265.1041666666667,290.98610335)" x2="0" y2="-2.015638461538458" style="fill: none; stroke: black;"></line><line transform="translate(1272.3958333333333,297.9331902730769)" x2="0" y2="-0.31914999999992233" style="fill: none; stroke: black;"></line><line transform="translate(1279.6875,295.61277815769233)" x2="0" y2="-0.49084442307696463" style="fill: none; stroke: black;"></line><line transform="translate(1286.9791666666667,287.3348306576923)" x2="0" y2="-6.618180769230719" style="fill: none; stroke: black;"></line><line transform="translate(1294.2708333333333,291.8864727730769)" x2="0" y2="-0.5723851923076495" style="fill: none; stroke: black;"></line><line transform="translate(1301.5625,297.26833411923076)" x2="0" y2="-2.2859230769230408" style="fill: none; stroke: black;"></line><line transform="translate(1308.8541666666667,297.4383998884615)" x2="0" y2="-0.5549788461538014" style="fill: none; stroke: black;"></line><line transform="translate(1316.1458333333333,293.52686796538467)" x2="0" y2="-8.878050384615449" style="fill: none; stroke: black;"></line><line transform="translate(1323.4375,296.16442392692306)" x2="0" y2="-3.402958653846156" style="fill: none; stroke: black;"></line><line transform="translate(1330.7291666666667,299.71056584999997)" x2="0" y2="-0.7925515384614528" style="fill: none; stroke: black;"></line><line transform="translate(1338.0208333333333,301.2530752730769)" x2="0" y2="-3.954134999999951" style="fill: none; stroke: black;"></line><line transform="translate(1345.3125,302.4593998884615)" x2="0" y2="-13.579895961538398" style="fill: none; stroke: black;"></line><line transform="translate(1352.6041666666667,296.81377681153845)" x2="0" y2="-30.141031538461505" style="fill: none; stroke: black;"></line><line transform="translate(1359.8958333333333,301.4202429653846)" x2="0" y2="-0.5868036538461752" style="fill: none; stroke: black;"></line><line transform="translate(1367.1875,296.4700031576923)" x2="0" y2="-0.8835744230768796" style="fill: none; stroke: black;"></line><line transform="translate(1374.4791666666667,295.2739231576923)" x2="0" y2="-0.020097115384658082" style="fill: none; stroke: black;"></line><line transform="translate(1381.7708333333333,291.84410469615386)" x2="0" y2="-5.266237307692336" style="fill: none; stroke: black;"></line><line transform="translate(1389.0625,293.0935120038462)" x2="0" y2="-8.736545000000035" style="fill: none; stroke: black;"></line><line transform="translate(1396.3541666666667,296.39198373461534)" x2="0" y2="-4.696116153846106" style="fill: none; stroke: black;"></line></g><g class="mark-rect role-mark layer_2_marks"><path d="M1.1458333333333335,498.9552262346154h5v0.2501505769230903h-5Z" style="fill: #4c78a8;"></path><path d="M8.4375,499.1511312346154h5v0.016392692307704237h-5Z" style="fill: #4c78a8;"></path><path d="M15.729166666666668,496.4610268115385h5v0.47809038461537057h-5Z" style="fill: #4c78a8;"></path><path d="M23.020833333333332,497.1782693115385h5v0.6809705769230732h-5Z" style="fill: #4c78a8;"></path><path d="M30.3125,496.41059950384613h5v1.3531450000000405h-5Z" style="fill: #4c78a8;"></path><path d="M37.60416666666667,490.6471370038461h5v0.649350192307736h-5Z" style="fill: #4c78a8;"></path><path d="M44.895833333333336,490.97484623461537h5v0.831684423076922h-5Z" style="fill: #4c78a8;"></path><path d="M52.18750000000001,490.85639969615386h5v1.0739732692307484h-5Z" style="fill: #4c78a8;"></path><path d="M59.47916666666667,491.50001411923074h5v0.5057778846153838h-5Z" style="fill: #4c78a8;"></path><path d="M66.77083333333333,491.20980258076924h5v0.6510809615384687h-5Z" style="fill: #4c78a8;"></path><path d="M74.0625,491.45183873461536h5v0.22304846153849667h-5Z" style="fill: #4c78a8;"></path><path d="M81.35416666666667,491.34695431153847h5v0.20901596153845503h-5Z" style="fill: #4c78a8;"></path><path d="M88.64583333333333,491.5059656576923h5v0.01897711538464364h-5Z" style="fill: #4c78a8;"></path><path d="M95.9375,491.3435718115385h5v0.21237865384614452h-5Z" style="fill: #4c78a8;"></path><path d="M103.22916666666667,458.73139931153844h5v1.9526767307692694h-5Z" style="fill: #4c78a8;"></path><path d="M110.52083333333333,235.29795873461535h5v4.155011730769274h-5Z" style="fill: #4c78a8;"></path><path d="M117.8125,246.1823225807692h5v5.1840409615385h-5Z" style="fill: #4c78a8;"></path><path d="M125.10416666666667,489.93789161923075h5v0.35741980769233805h-5Z" style="fill: #4c78a8;"></path><path d="M132.39583333333334,248.10687104230772h5v3.0896559615384263h-5Z" style="fill: #4c78a8;"></path><path d="M139.68750000000003,242.6902589269231h5v3.088341346153811h-5Z" style="fill: #4c78a8;"></path><path d="M146.97916666666669,241.81800931153845h5v4.9617315384615495h-5Z" style="fill: #4c78a8;"></path><path d="M154.27083333333334,269.62372161923076h5v0.7637467307692418h-5Z" style="fill: #4c78a8;"></path><path d="M161.56250000000003,325.3494829653846h5v0.7379171153846187h-5Z" style="fill: #4c78a8;"></path><path d="M168.85416666666669,325.7467287346154h5v3.200187500000027h-5Z" style="fill: #4c78a8;"></path><path d="M176.14583333333334,319.32327911923073h5v1.5530811538461649h-5Z" style="fill: #4c78a8;"></path><path d="M183.43750000000003,317.3073781576923h5v14.447331730769235h-5Z" style="fill: #4c78a8;"></path><path d="M190.72916666666669,329.8345279653846h5v3.3152513461538433h-5Z" style="fill: #4c78a8;"></path><path d="M198.02083333333334,276.43475335h5v5.093964038461536h-5Z" style="fill: #4c78a8;"></path><path d="M205.31250000000003,278.82525508076924h5v3.8789663461537884h-5Z" style="fill: #4c78a8;"></path><path d="M212.60416666666669,224.0338623884615h5v43.11560711538465h-5Z" style="fill: #4c78a8;"></path><path d="M219.89583333333334,240.56588411923082h5v20.138430576923042h-5Z" style="fill: #4c78a8;"></path><path d="M227.18750000000003,256.2217910423077h5v8.213471538461476h-5Z" style="fill: #4c78a8;"></path><path d="M234.47916666666669,257.15724392692306h5v8.63378826923082h-5Z" style="fill: #4c78a8;"></path><path d="M241.77083333333334,235.27289315769235h5v18.130769230769204h-5Z" style="fill: #4c78a8;"></path><path d="M249.06250000000003,254.89387546538464h5v4.510390576923072h-5Z" style="fill: #4c78a8;"></path><path d="M256.3541666666667,213.6697793115385h5v18.758708653846156h-5Z" style="fill: #4c78a8;"></path><path d="M263.6458333333333,236.22095277307693h5v18.108441538461534h-5Z" style="fill: #4c78a8;"></path><path d="M270.9375,255.18546104230768h5v2.7279692307691903h-5Z" style="fill: #4c78a8;"></path><path d="M278.2291666666667,258.96720392692305h5v5.154475769230771h-5Z" style="fill: #4c78a8;"></path><path d="M285.5208333333333,189.3325927730769h5v3.9821096153846156h-5Z" style="fill: #4c78a8;"></path><path d="M292.8125,182.1527996961538h5v8.056203846153892h-5Z" style="fill: #4c78a8;"></path><path d="M300.1041666666667,188.81447334999996h5v0.24547500000005584h-5Z" style="fill: #4c78a8;"></path><path d="M307.3958333333333,185.9673175807692h5v1.851024615384631h-5Z" style="fill: #4c78a8;"></path><path d="M314.6875,185.2920548884615h5v5.175886730769264h-5Z" style="fill: #4c78a8;"></path><path d="M321.9791666666667,244.98709585h5v1.8420925000000068h-5Z" style="fill: #4c78a8;"></path><path d="M329.2708333333333,241.72876911923072h5v6.330889038461606h-5Z" style="fill: #4c78a8;"></path><path d="M336.5625,245.47265969615384h5v3.062242499999968h-5Z" style="fill: #4c78a8;"></path><path d="M343.8541666666667,246.75372488846153h5v7.552101346153847h-5Z" style="fill: #4c78a8;"></path><path d="M351.1458333333333,242.45684681153847h5v4.5879048076923254h-5Z" style="fill: #4c78a8;"></path><path d="M358.4375,244.33107104230766h5v3.5899724999999876h-5Z" style="fill: #4c78a8;"></path><path d="M365.7291666666667,237.28028008076922h5v20.304801730769213h-5Z" style="fill: #4c78a8;"></path><path d="M373.0208333333333,229.37689738846154h5v23.744866153846147h-5Z" style="fill: #4c78a8;"></path><path d="M380.3125,256.10065431153845h5v8.05322000000001h-5Z" style="fill: #4c78a8;"></path><path d="M387.6041666666667,239.2767156576923h5v19.715962499999932h-5Z" style="fill: #4c78a8;"></path><path d="M394.8958333333333,254.84266988846153h5v3.8581851923076727h-5Z" style="fill: #4c78a8;"></path><path d="M402.1875,253.4956548884615h5v11.93371153846158h-5Z" style="fill: #4c78a8;"></path><path d="M409.4791666666667,260.8550106576923h5v7.346051923076914h-5Z" style="fill: #4c78a8;"></path><path d="M416.7708333333333,266.21718604230773h5v2.0280157692307057h-5Z" style="fill: #4c78a8;"></path><path d="M424.0625,243.34757296538464h5v23.816552884615362h-5Z" style="fill: #4c78a8;"></path><path d="M431.3541666666667,266.7597841192308h5v0.3029390384614885h-5Z" style="fill: #4c78a8;"></path><path d="M438.6458333333333,262.83821123461536h5v3.440521923076915h-5Z" style="fill: #4c78a8;"></path><path d="M445.9375,246.6670529653846h5v8.627950000000027h-5Z" style="fill: #4c78a8;"></path><path d="M453.2291666666667,253.63910661923077h5v3.452592692307718h-5Z" style="fill: #4c78a8;"></path><path d="M460.5208333333333,244.08162585h5v9.00564749999998h-5Z" style="fill: #4c78a8;"></path><path d="M467.8125,252.58101969615385h5v4.658865961538453h-5Z" style="fill: #4c78a8;"></path><path d="M475.1041666666667,233.47241469615386h5v0.6459623076923435h-5Z" style="fill: #4c78a8;"></path><path d="M482.3958333333333,219.96349642692303h5v4.689025576923086h-5Z" style="fill: #4c78a8;"></path><path d="M489.6875,239.58534334999996h5v10.644964230769261h-5Z" style="fill: #4c78a8;"></path><path d="M496.9791666666667,306.3830141192308h5v16.67546942307689h-5Z" style="fill: #4c78a8;"></path><path d="M504.2708333333333,323.9616623884615h5v0.9069380769230975h-5Z" style="fill: #4c78a8;"></path><path d="M511.5625,323.7655673884615h5v1.3383553846154541h-5Z" style="fill: #4c78a8;"></path><path d="M518.8541666666667,321.3448781576923h5v0.2815721153846198h-5Z" style="fill: #4c78a8;"></path><path d="M526.1458333333334,241.11653335h5v25.00041076923077h-5Z" style="fill: #4c78a8;"></path><path d="M533.4375000000001,254.6328904653846h5v5.03462807692307h-5Z" style="fill: #4c78a8;"></path><path d="M540.7291666666667,250.6654564269231h5v13.367520769230765h-5Z" style="fill: #4c78a8;"></path><path d="M548.0208333333334,254.80373527307694h5v13.954146730769196h-5Z" style="fill: #4c78a8;"></path><path d="M555.3125000000001,233.7935423884615h5v21.6196986538462h-5Z" style="fill: #4c78a8;"></path><path d="M562.6041666666667,258.95715835h5v8.92798269230775h-5Z" style="fill: #4c78a8;"></path><path d="M569.8958333333334,272.9086768115385h5v3.1504428846153587h-5Z" style="fill: #4c78a8;"></path><path d="M577.1875000000001,250.4794606576923h5v2.8545594230769495h-5Z" style="fill: #4c78a8;"></path><path d="M584.4791666666667,251.53318758076924h5v1.4377853846153528h-5Z" style="fill: #4c78a8;"></path><path d="M591.7708333333334,254.14850046538461h5v1.704447307692277h-5Z" style="fill: #4c78a8;"></path><path d="M599.0625000000001,205.03660777307692h5v2.216117115384577h-5Z" style="fill: #4c78a8;"></path><path d="M606.3541666666667,206.10475623461537h5v0.5903873076923105h-5Z" style="fill: #4c78a8;"></path><path d="M613.6458333333334,203.5058585423077h5v4.401419038461597h-5Z" style="fill: #4c78a8;"></path><path d="M620.9375000000001,202.47885719615385h5v2.895920192307699h-5Z" style="fill: #4c78a8;"></path><path d="M628.2291666666667,206.36451431153841h5v1.2210748076923323h-5Z" style="fill: #4c78a8;"></path><path d="M635.5208333333334,206.79195315769232h5v0.6784286538460833h-5Z" style="fill: #4c78a8;"></path><path d="M642.8125000000001,205.53410527307693h5v1.2044457692308015h-5Z" style="fill: #4c78a8;"></path><path d="M650.1041666666667,204.70650642692306h5v1.7490042307692306h-5Z" style="fill: #4c78a8;"></path><path d="M657.3958333333334,203.7183302730769h5v2.4792755769231007h-5Z" style="fill: #4c78a8;"></path><path d="M664.6875000000001,204.36120719615388h5v1.9059617307691497h-5Z" style="fill: #4c78a8;"></path><path d="M671.9791666666667,206.8355875807692h5v0.8685565384615757h-5Z" style="fill: #4c78a8;"></path><path d="M679.2708333333334,198.78968719615386h5v3.919231923076836h-5Z" style="fill: #4c78a8;"></path><path d="M686.5625000000001,197.71697431153848h5v3.459488076923037h-5Z" style="fill: #4c78a8;"></path><path d="M693.8541666666667,170.78106142692315h5v23.177406346153816h-5Z" style="fill: #4c78a8;"></path><path d="M701.1458333333334,193.41270258076918h5v7.1072873076923315h-5Z" style="fill: #4c78a8;"></path><path d="M708.4375000000001,443.28966258076923h5v2.016794423076931h-5Z" style="fill: #4c78a8;"></path><path d="M715.7291666666667,440.2595418115385h5v3.9957374999999615h-5Z" style="fill: #4c78a8;"></path><path d="M723.0208333333334,442.5861079653846h5v1.1958090384615616h-5Z" style="fill: #4c78a8;"></path><path d="M730.3125000000001,441.7363837346154h5v1.8885474999999587h-5Z" style="fill: #4c78a8;"></path><path d="M737.6041666666667,442.86572200384614h5v1.3987038461538646h-5Z" style="fill: #4c78a8;"></path><path d="M744.8958333333334,442.21329931153844h5v0.8466182692308166h-5Z" style="fill: #4c78a8;"></path><path d="M752.1875000000001,456.3481575807692h5v0.8834292307692522h-5Z" style="fill: #4c78a8;"></path><path d="M759.4791666666667,454.2577070038461h5v1.6782875000000104h-5Z" style="fill: #4c78a8;"></path><path d="M766.7708333333334,228.6116550807692h5v7.423865961538468h-5Z" style="fill: #4c78a8;"></path><path d="M774.0625000000001,255.18244969615384h5v2.1809075000000178h-5Z" style="fill: #4c78a8;"></path><path d="M781.3541666666667,253.24994681153845h5v3.6927484615384287h-5Z" style="fill: #4c78a8;"></path><path d="M788.6458333333334,265.1599866192307h5v0.7728261538462107h-5Z" style="fill: #4c78a8;"></path><path d="M795.9375000000001,257.02630008076926h5v12.845358846153829h-5Z" style="fill: #4c78a8;"></path><path d="M803.2291666666667,270.31460392692304h5v5.070330000000013h-5Z" style="fill: #4c78a8;"></path><path d="M810.5208333333334,269.51181008076924h5v2.7243274999999585h-5Z" style="fill: #4c78a8;"></path><path d="M817.8125000000001,250.22744642692308h5v19.880496923076947h-5Z" style="fill: #4c78a8;"></path><path d="M825.1041666666667,271.38160681153846h5v2.9214198076923026h-5Z" style="fill: #4c78a8;"></path><path d="M832.3958333333334,218.65670835000003h5v2.240132692307668h-5Z" style="fill: #4c78a8;"></path><path d="M839.6875000000001,217.4742818115385h5v1.0494678846153533h-5Z" style="fill: #4c78a8;"></path><path d="M846.9791666666667,200.69742950384614h5v12.553654807692283h-5Z" style="fill: #4c78a8;"></path><path d="M854.2708333333334,271.88571892692306h5v3.2952621153846167h-5Z" style="fill: #4c78a8;"></path><path d="M861.5625000000001,274.4945616192308h5v2.093226538461522h-5Z" style="fill: #4c78a8;"></path><path d="M868.8541666666667,269.68017950384615h5v3.2707182692307697h-5Z" style="fill: #4c78a8;"></path><path d="M876.1458333333334,265.31886681153844h5v6.6105175000000145h-5Z" style="fill: #4c78a8;"></path><path d="M883.4375000000001,247.9927731576923h5v13.454440769230729h-5Z" style="fill: #4c78a8;"></path><path d="M890.7291666666667,278.0051479653846h5v1.868875192307712h-5Z" style="fill: #4c78a8;"></path><path d="M898.0208333333334,260.37592988846154h5v12.100778653846135h-5Z" style="fill: #4c78a8;"></path><path d="M905.3125000000001,256.53952969615386h5v10.972962692307647h-5Z" style="fill: #4c78a8;"></path><path d="M912.6041666666667,253.62872719615387h5v9.685843461538411h-5Z" style="fill: #4c78a8;"></path><path d="M919.8958333333334,252.5588518115385h5v10.898620384615356h-5Z" style="fill: #4c78a8;"></path><path d="M927.1875000000001,227.28186238846155h5v32.105619615384626h-5Z" style="fill: #4c78a8;"></path><path d="M934.4791666666667,245.43545431153845h5v15.996545576923069h-5Z" style="fill: #4c78a8;"></path><path d="M941.7708333333334,253.01473758076924h5v2.963666730769205h-5Z" style="fill: #4c78a8;"></path><path d="M949.0625000000001,254.66835738846154h5v8.304276346153841h-5Z" style="fill: #4c78a8;"></path><path d="M956.3541666666667,202.63957719615382h5v21.023344423076992h-5Z" style="fill: #4c78a8;"></path><path d="M963.6458333333334,486.9299062346154h5v0.09074692307694932h-5Z" style="fill: #4c78a8;"></path><path d="M970.9375000000001,209.1438762346154h5v10.02780442307693h-5Z" style="fill: #4c78a8;"></path><path d="M978.2291666666667,213.30849758076926h5v7.28364461538456h-5Z" style="fill: #4c78a8;"></path><path d="M985.5208333333334,223.34867911923078h5v2.4971607692307316h-5Z" style="fill: #4c78a8;"></path><path d="M992.8125000000001,207.3898346961538h5v1.9424203846153887h-5Z" style="fill: #4c78a8;"></path><path d="M1000.1041666666667,224.20462642692308h5v2.7097596153845984h-5Z" style="fill: #4c78a8;"></path><path d="M1007.3958333333334,226.90362065769233h5v1.5417876923076506h-5Z" style="fill: #4c78a8;"></path><path d="M1014.6875000000001,207.26453354230773h5v10.642350769230688h-5Z" style="fill: #4c78a8;"></path><path d="M1021.9791666666667,208.1061135423077h5v7.477212500000007h-5Z" style="fill: #4c78a8;"></path><path d="M1029.2708333333333,208.39385700384616h5v1.2501136538461992h-5Z" style="fill: #4c78a8;"></path><path d="M1036.5625,211.65495719615387h5v3.03446192307689h-5Z" style="fill: #4c78a8;"></path><path d="M1043.8541666666667,212.71867777307688h5v4.119725000000017h-5Z" style="fill: #4c78a8;"></path><path d="M1051.1458333333333,199.8467631576923h5v4.333718846153829h-5Z" style="fill: #4c78a8;"></path><path d="M1058.4375,195.65099161923075h5v8.600357692307682h-5Z" style="fill: #4c78a8;"></path><path d="M1065.7291666666667,444.23631911923076h5v4.340897884615401h-5Z" style="fill: #4c78a8;"></path><path d="M1073.0208333333333,447.36621161923074h5v1.1507505769230875h-5Z" style="fill: #4c78a8;"></path><path d="M1080.3125,447.3555554653846h5v1.1763869230769046h-5Z" style="fill: #4c78a8;"></path><path d="M1087.6041666666667,445.39928681153845h5v0.9205625000000168h-5Z" style="fill: #4c78a8;"></path><path d="M1094.8958333333333,444.8533839269231h5v0.6648175000000265h-5Z" style="fill: #4c78a8;"></path><path d="M1102.1875,444.69601450384613h5v1.1768103846154077h-5Z" style="fill: #4c78a8;"></path><path d="M1109.4791666666667,442.1379164269231h5v3.5946488461538593h-5Z" style="fill: #4c78a8;"></path><path d="M1116.7708333333333,187.34336354230766h5v6.222286346153851h-5Z" style="fill: #4c78a8;"></path><path d="M1124.0625,182.28130623461544h5v12.429531923076865h-5Z" style="fill: #4c78a8;"></path><path d="M1131.3541666666667,188.01132258076922h5v10.872699615384647h-5Z" style="fill: #4c78a8;"></path><path d="M1138.6458333333333,179.00634873461541h5v7.040586538461525h-5Z" style="fill: #4c78a8;"></path><path d="M1145.9375,194.64066488846157h5v1.6413292307692018h-5Z" style="fill: #4c78a8;"></path><path d="M1153.2291666666667,199.67676565769233h5v0.6054296153845371h-5Z" style="fill: #4c78a8;"></path><path d="M1160.5208333333333,200.96147931153848h5v4.062283846153775h-5Z" style="fill: #4c78a8;"></path><path d="M1167.8125,201.67600931153845h5v3.006188461538443h-5Z" style="fill: #4c78a8;"></path><path d="M1175.1041666666667,182.74368335000003h5v20.363363846153845h-5Z" style="fill: #4c78a8;"></path><path d="M1182.3958333333333,191.3899881576923h5v13.946157692307679h-5Z" style="fill: #4c78a8;"></path><path d="M1189.6875,174.24000469615385h5v29.22998653846156h-5Z" style="fill: #4c78a8;"></path><path d="M1196.9791666666667,199.54407008076925h5v2.2428990384615304h-5Z" style="fill: #4c78a8;"></path><path d="M1204.2708333333333,200.5403062346154h5v6.452354230769174h-5Z" style="fill: #4c78a8;"></path><path d="M1211.5625,207.33397046538465h5v1.7688998076922644h-5Z" style="fill: #4c78a8;"></path><path d="M1218.8541666666667,205.45863508076923h5v2.809280384615363h-5Z" style="fill: #4c78a8;"></path><path d="M1226.1458333333333,239.20289585h5v11.253532307692268h-5Z" style="fill: #4c78a8;"></path><path d="M1233.4375,297.69647719615386h5v3.460117499999967h-5Z" style="fill: #4c78a8;"></path><path d="M1240.7291666666667,294.5492162346154h5v6.703198076923059h-5Z" style="fill: #4c78a8;"></path><path d="M1248.0208333333333,292.21868642692306h5v4.723900384615433h-5Z" style="fill: #4c78a8;"></path><path d="M1255.3125,291.66085585h5v7.752448846153868h-5Z" style="fill: #4c78a8;"></path><path d="M1262.6041666666667,290.98610335h5v2.9198417307692353h-5Z" style="fill: #4c78a8;"></path><path d="M1269.8958333333333,297.9331902730769h5v2.2643686538461907h-5Z" style="fill: #4c78a8;"></path><path d="M1277.1875,295.61277815769233h5v1.8190248076922444h-5Z" style="fill: #4c78a8;"></path><path d="M1284.4791666666667,287.3348306576923h5v9.610194423076962h-5Z" style="fill: #4c78a8;"></path><path d="M1291.7708333333333,291.8864727730769h5v6.214016538461578h-5Z" style="fill: #4c78a8;"></path><path d="M1299.0625,297.26833411923076h5v2.9174938461538886h-5Z" style="fill: #4c78a8;"></path><path d="M1306.3541666666667,297.4383998884615h5v3.313659423076956h-5Z" style="fill: #4c78a8;"></path><path d="M1313.6458333333333,293.52686796538467h5v6.962305769230738h-5Z" style="fill: #4c78a8;"></path><path d="M1320.9375,296.16442392692306h5v2.8723375000000146h-5Z" style="fill: #4c78a8;"></path><path d="M1328.2291666666667,299.71056584999997h5v0.9025786538462057h-5Z" style="fill: #4c78a8;"></path><path d="M1335.5208333333333,301.2530752730769h5v2.5693155769231453h-5Z" style="fill: #4c78a8;"></path><path d="M1342.8125,302.4593998884615h5v0.6366969230768973h-5Z" style="fill: #4c78a8;"></path><path d="M1350.1041666666667,296.81377681153845h5v4.87210846153846h-5Z" style="fill: #4c78a8;"></path><path d="M1357.3958333333333,301.4202429653846h5v3.0614484615384754h-5Z" style="fill: #4c78a8;"></path><path d="M1364.6875,296.4700031576923h5v5.5149240384615155h-5Z" style="fill: #4c78a8;"></path><path d="M1371.9791666666667,295.2739231576923h5v3.420353846153887h-5Z" style="fill: #4c78a8;"></path><path d="M1379.2708333333333,291.84410469615386h5v7.226945769230724h-5Z" style="fill: #4c78a8;"></path><path d="M1386.5625,293.0935120038462h5v5.256130576923056h-5Z" style="fill: #4c78a8;"></path><path d="M1393.8541666666667,296.39198373461534h5v2.299614038461584h-5Z" style="fill: #4c78a8;"></path></g><g class="mark-rect role-mark layer_3_marks"><path d="M1.1458333333333335,498.66396258076924h5v1h-5Z" style="fill: white; opacity: 0.7;"></path><path d="M8.4375,498.6575806576923h5v1h-5Z" style="fill: white; opacity: 0.7;"></path><path d="M15.729166666666668,496.2175985423077h5v1h-5Z" style="fill: white; opacity: 0.7;"></path><path d="M23.020833333333332,497.14598969615383h5v1h-5Z" style="fill: white; opacity: 0.7;"></path><path d="M30.3125,496.9763323884615h5v1h-5Z" style="fill: white; opacity: 0.7;"></path><path d="M37.60416666666667,490.6821064269231h5v1h-5Z" style="fill: white; opacity: 0.7;"></path><path d="M44.895833333333336,490.5362127730769h5v1h-5Z" style="fill: white; opacity: 0.7;"></path><path d="M52.18750000000001,490.45970758076925h5v1h-5Z" style="fill: white; opacity: 0.7;"></path><path d="M59.47916666666667,491.2610446961538h5v1h-5Z" style="fill: white; opacity: 0.7;"></path><path d="M66.77083333333333,490.91039988846154h5v1h-5Z" style="fill: white; opacity: 0.7;"></path><path d="M74.0625,491.0048939269231h5v1h-5Z" style="fill: white; opacity: 0.7;"></path><path d="M81.35416666666667,490.99200738846156h5v1h-5Z" style="fill: white; opacity: 0.7;"></path><path d="M88.64583333333333,491.01454469615385h5v1h-5Z" style="fill: white; opacity: 0.7;"></path><path d="M95.9375,490.9102741192308h5v1h-5Z" style="fill: white; opacity: 0.7;"></path><path d="M103.22916666666667,459.75962969615387h5v1h-5Z" style="fill: white; opacity: 0.7;"></path><path d="M110.52083333333333,236.7201210423077h5v1h-5Z" style="fill: white; opacity: 0.7;"></path><path d="M117.8125,247.95139335h5v1h-5Z" style="fill: white; opacity: 0.7;"></path><path d="M125.10416666666667,489.63538508076925h5v1h-5Z" style="fill: white; opacity: 0.7;"></path><path d="M132.39583333333334,250.3800077730769h5v1h-5Z" style="fill: white; opacity: 0.7;"></path><path d="M139.68750000000003,242.8488410423077h5v1h-5Z" style="fill: white; opacity: 0.7;"></path><path d="M146.97916666666669,245.87226661923074h5v1h-5Z" style="fill: white; opacity: 0.7;"></path><path d="M154.27083333333334,269.50375277307694h5v1h-5Z" style="fill: white; opacity: 0.7;"></path><path d="M161.56250000000003,325.18609161923075h5v1h-5Z" style="fill: white; opacity: 0.7;"></path><path d="M168.85416666666669,325.4931823884615h5v1h-5Z" style="fill: white; opacity: 0.7;"></path><path d="M176.14583333333334,319.46679200384614h5v1h-5Z" style="fill: white; opacity: 0.7;"></path><path d="M183.43750000000003,321.06206084999997h5v1h-5Z" style="fill: white; opacity: 0.7;"></path><path d="M190.72916666666669,331.9123504653846h5v1h-5Z" style="fill: white; opacity: 0.7;"></path><path d="M198.02083333333334,280.91384681153846h5v1h-5Z" style="fill: white; opacity: 0.7;"></path><path d="M205.31250000000003,279.60622508076926h5v1h-5Z" style="fill: white; opacity: 0.7;"></path><path d="M212.60416666666669,261.4248881576923h5v1h-5Z" style="fill: white; opacity: 0.7;"></path><path d="M219.89583333333334,246.8526873884615h5v1h-5Z" style="fill: white; opacity: 0.7;"></path><path d="M227.18750000000003,259.61229508076923h5v1h-5Z" style="fill: white; opacity: 0.7;"></path><path d="M234.47916666666669,262.3751231576923h5v1h-5Z" style="fill: white; opacity: 0.7;"></path><path d="M241.77083333333334,250.33986181153844h5v1h-5Z" style="fill: white; opacity: 0.7;"></path><path d="M249.06250000000003,255.17227796538464h5v1h-5Z" style="fill: white; opacity: 0.7;"></path><path d="M256.3541666666667,225.9768375807692h5v1h-5Z" style="fill: white; opacity: 0.7;"></path><path d="M263.6458333333333,244.29041142692304h5v1h-5Z" style="fill: white; opacity: 0.7;"></path><path d="M270.9375,255.32479834999998h5v1h-5Z" style="fill: white; opacity: 0.7;"></path><path d="M278.2291666666667,261.30548161923076h5v1h-5Z" style="fill: white; opacity: 0.7;"></path><path d="M285.5208333333333,189.38084065769226h5v1h-5Z" style="fill: white; opacity: 0.7;"></path><path d="M292.8125,187.53882508076924h5v1h-5Z" style="fill: white; opacity: 0.7;"></path><path d="M300.1041666666667,188.4279679653846h5v1h-5Z" style="fill: white; opacity: 0.7;"></path><path d="M307.3958333333333,186.13884546538463h5v1h-5Z" style="fill: white; opacity: 0.7;"></path><path d="M314.6875,186.31961546538463h5v1h-5Z" style="fill: white; opacity: 0.7;"></path><path d="M321.9791666666667,245.24390258076923h5v1h-5Z" style="fill: white; opacity: 0.7;"></path><path d="M329.2708333333333,243.35818315769234h5v1h-5Z" style="fill: white; opacity: 0.7;"></path><path d="M336.5625,246.09874950384614h5v1h-5Z" style="fill: white; opacity: 0.7;"></path><path d="M343.8541666666667,251.0609760423077h5v1h-5Z" style="fill: white; opacity: 0.7;"></path><path d="M351.1458333333333,242.03187450384615h5v1h-5Z" style="fill: white; opacity: 0.7;"></path><path d="M358.4375,246.20667584999995h5v1h-5Z" style="fill: white; opacity: 0.7;"></path><path d="M365.7291666666667,242.39527758076923h5v1h-5Z" style="fill: white; opacity: 0.7;"></path><path d="M373.0208333333333,243.5085437346154h5v1h-5Z" style="fill: white; opacity: 0.7;"></path><path d="M380.3125,261.195176426923h5v1h-5Z" style="fill: white; opacity: 0.7;"></path><path d="M387.6041666666667,252.2608889269231h5v1h-5Z" style="fill: white; opacity: 0.7;"></path><path d="M394.8958333333333,257.3355091192308h5v1h-5Z" style="fill: white; opacity: 0.7;"></path><path d="M402.1875,261.08983335h5v1h-5Z" style="fill: white; opacity: 0.7;"></path><path d="M409.4791666666667,267.18620604230773h5v1h-5Z" style="fill: white; opacity: 0.7;"></path><path d="M416.7708333333333,267.03527335h5v1h-5Z" style="fill: white; opacity: 0.7;"></path><path d="M424.0625,262.54055142692306h5v1h-5Z" style="fill: white; opacity: 0.7;"></path><path d="M431.3541666666667,266.4845085423077h5v1h-5Z" style="fill: white; opacity: 0.7;"></path><path d="M438.6458333333333,264.1967406576923h5v1h-5Z" style="fill: white; opacity: 0.7;"></path><path d="M445.9375,248.09292623461536h5v1h-5Z" style="fill: white; opacity: 0.7;"></path><path d="M453.2291666666667,254.9145785423077h5v1h-5Z" style="fill: white; opacity: 0.7;"></path><path d="M460.5208333333333,243.88161585h5v1h-5Z" style="fill: white; opacity: 0.7;"></path><path d="M467.8125,253.18502623461535h5v1h-5Z" style="fill: white; opacity: 0.7;"></path><path d="M475.1041666666667,233.5628568115385h5v1h-5Z" style="fill: white; opacity: 0.7;"></path><path d="M482.3958333333333,221.2164745038462h5v1h-5Z" style="fill: white; opacity: 0.7;"></path><path d="M489.6875,240.38877027307694h5v1h-5Z" style="fill: white; opacity: 0.7;"></path><path d="M496.9791666666667,318.8513270038461h5v1h-5Z" style="fill: white; opacity: 0.7;"></path><path d="M504.2708333333333,324.08192796538464h5v1h-5Z" style="fill: white; opacity: 0.7;"></path><path d="M511.5625,324.1564706576923h5v1h-5Z" style="fill: white; opacity: 0.7;"></path><path d="M518.8541666666667,320.88014085h5v1h-5Z" style="fill: white; opacity: 0.7;"></path><path d="M526.1458333333334,243.16450950384615h5v1h-5Z" style="fill: white; opacity: 0.7;"></path><path d="M533.4375000000001,255.08349738846155h5v1h-5Z" style="fill: white; opacity: 0.7;"></path><path d="M540.7291666666667,261.40365835h5v1h-5Z" style="fill: white; opacity: 0.7;"></path><path d="M548.0208333333334,265.64239700384616h5v1h-5Z" style="fill: white; opacity: 0.7;"></path><path d="M555.3125000000001,251.95582911923077h5v1h-5Z" style="fill: white; opacity: 0.7;"></path><path d="M562.6041666666667,260.03907527307695h5v1h-5Z" style="fill: white; opacity: 0.7;"></path><path d="M569.8958333333334,273.2837137346154h5v1h-5Z" style="fill: white; opacity: 0.7;"></path><path d="M577.1875000000001,252.1834635423077h5v1h-5Z" style="fill: white; opacity: 0.7;"></path><path d="M584.4791666666667,252.2868841192308h5v1h-5Z" style="fill: white; opacity: 0.7;"></path><path d="M591.7708333333334,254.1788912346154h5v1h-5Z" style="fill: white; opacity: 0.7;"></path><path d="M599.0625000000001,204.55150758076923h5v1h-5Z" style="fill: white; opacity: 0.7;"></path><path d="M606.3541666666667,206.06348354230767h5v1h-5Z" style="fill: white; opacity: 0.7;"></path><path d="M613.6458333333334,205.23958623461533h5v1h-5Z" style="fill: white; opacity: 0.7;"></path><path d="M620.9375000000001,203.51634565769228h5v1h-5Z" style="fill: white; opacity: 0.7;"></path><path d="M628.2291666666667,206.00740585h5v1h-5Z" style="fill: white; opacity: 0.7;"></path><path d="M635.5208333333334,206.46035950384618h5v1h-5Z" style="fill: white; opacity: 0.7;"></path><path d="M642.8125000000001,205.8476210423077h5v1h-5Z" style="fill: white; opacity: 0.7;"></path><path d="M650.1041666666667,204.96805238846156h5v1h-5Z" style="fill: white; opacity: 0.7;"></path><path d="M657.3958333333334,204.83000431153846h5v1h-5Z" style="fill: white; opacity: 0.7;"></path><path d="M664.6875000000001,204.22094354230768h5v1h-5Z" style="fill: white; opacity: 0.7;"></path><path d="M671.9791666666667,206.43530200384612h5v1h-5Z" style="fill: white; opacity: 0.7;"></path><path d="M679.2708333333334,202.1066923884615h5v1h-5Z" style="fill: white; opacity: 0.7;"></path><path d="M686.5625000000001,197.50556181153843h5v1h-5Z" style="fill: white; opacity: 0.7;"></path><path d="M693.8541666666667,193.28582584999998h5v1h-5Z" style="fill: white; opacity: 0.7;"></path><path d="M701.1458333333334,194.3645723884615h5v1h-5Z" style="fill: white; opacity: 0.7;"></path><path d="M708.4375000000001,444.27847681153844h5v1h-5Z" style="fill: white; opacity: 0.7;"></path><path d="M715.7291666666667,441.30647161923076h5v1h-5Z" style="fill: white; opacity: 0.7;"></path><path d="M723.0208333333334,442.6415785423077h5v1h-5Z" style="fill: white; opacity: 0.7;"></path><path d="M730.3125000000001,442.52412835h5v1h-5Z" style="fill: white; opacity: 0.7;"></path><path d="M737.6041666666667,443.51743777307695h5v1h-5Z" style="fill: white; opacity: 0.7;"></path><path d="M744.8958333333334,442.53699200384614h5v1h-5Z" style="fill: white; opacity: 0.7;"></path><path d="M752.1875000000001,456.71379431153844h5v1h-5Z" style="fill: white; opacity: 0.7;"></path><path d="M759.4791666666667,455.1777704653846h5v1h-5Z" style="fill: white; opacity: 0.7;"></path><path d="M766.7708333333334,235.1460414269231h5v1h-5Z" style="fill: white; opacity: 0.7;"></path><path d="M774.0625000000001,256.43749700384615h5v1h-5Z" style="fill: white; opacity: 0.7;"></path><path d="M781.3541666666667,255.89649200384616h5v1h-5Z" style="fill: white; opacity: 0.7;"></path><path d="M788.6458333333334,264.84976335h5v1h-5Z" style="fill: white; opacity: 0.7;"></path><path d="M795.9375000000001,268.4983420038462h5v1h-5Z" style="fill: white; opacity: 0.7;"></path><path d="M803.2291666666667,271.7280402730769h5v1h-5Z" style="fill: white; opacity: 0.7;"></path><path d="M810.5208333333334,269.0533962346154h5v1h-5Z" style="fill: white; opacity: 0.7;"></path><path d="M817.8125000000001,268.96846623461533h5v1h-5Z" style="fill: white; opacity: 0.7;"></path><path d="M825.1041666666667,273.31593584999996h5v1h-5Z" style="fill: white; opacity: 0.7;"></path><path d="M832.3958333333334,219.45159488846156h5v1h-5Z" style="fill: white; opacity: 0.7;"></path><path d="M839.6875000000001,217.56173277307693h5v1h-5Z" style="fill: white; opacity: 0.7;"></path><path d="M846.9791666666667,210.10034277307687h5v1h-5Z" style="fill: white; opacity: 0.7;"></path><path d="M854.2708333333334,271.62398835h5v1h-5Z" style="fill: white; opacity: 0.7;"></path><path d="M861.5625000000001,275.9776941192308h5v1h-5Z" style="fill: white; opacity: 0.7;"></path><path d="M868.8541666666667,272.0604993115385h5v1h-5Z" style="fill: white; opacity: 0.7;"></path><path d="M876.1458333333334,268.42204085000003h5v1h-5Z" style="fill: white; opacity: 0.7;"></path><path d="M883.4375000000001,250.56360700384616h5v1h-5Z" style="fill: white; opacity: 0.7;"></path><path d="M890.7291666666667,277.9449439269231h5v1h-5Z" style="fill: white; opacity: 0.7;"></path><path d="M898.0208333333334,270.99306123461537h5v1h-5Z" style="fill: white; opacity: 0.7;"></path><path d="M905.3125000000001,265.56477661923077h5v1h-5Z" style="fill: white; opacity: 0.7;"></path><path d="M912.6041666666667,253.95381181153846h5v1h-5Z" style="fill: white; opacity: 0.7;"></path><path d="M919.8958333333334,257.98669661923077h5v1h-5Z" style="fill: white; opacity: 0.7;"></path><path d="M927.1875000000001,258.8621954653846h5v1h-5Z" style="fill: white; opacity: 0.7;"></path><path d="M934.4791666666667,255.8406021961539h5v1h-5Z" style="fill: white; opacity: 0.7;"></path><path d="M941.7708333333334,255.38435931153845h5v1h-5Z" style="fill: white; opacity: 0.7;"></path><path d="M949.0625000000001,260.40549085h5v1h-5Z" style="fill: white; opacity: 0.7;"></path><path d="M956.3541666666667,215.4616627730769h5v1h-5Z" style="fill: white; opacity: 0.7;"></path><path d="M963.6458333333334,486.46123469615384h5v1h-5Z" style="fill: white; opacity: 0.7;"></path><path d="M970.9375000000001,216.8777820038461h5v1h-5Z" style="fill: white; opacity: 0.7;"></path><path d="M978.2291666666667,219.46258988846154h5v1h-5Z" style="fill: white; opacity: 0.7;"></path><path d="M985.5208333333334,224.07079411923075h5v1h-5Z" style="fill: white; opacity: 0.7;"></path><path d="M992.8125000000001,207.51364565769228h5v1h-5Z" style="fill: white; opacity: 0.7;"></path><path d="M1000.1041666666667,225.39606585h5v1h-5Z" style="fill: white; opacity: 0.7;"></path><path d="M1007.3958333333334,226.90765200384618h5v1h-5Z" style="fill: white; opacity: 0.7;"></path><path d="M1014.6875000000001,213.26270161923077h5v1h-5Z" style="fill: white; opacity: 0.7;"></path><path d="M1021.9791666666667,213.84816815769233h5v1h-5Z" style="fill: white; opacity: 0.7;"></path><path d="M1029.2708333333333,208.1262704653846h5v1h-5Z" style="fill: white; opacity: 0.7;"></path><path d="M1036.5625,213.92170431153846h5v1h-5Z" style="fill: white; opacity: 0.7;"></path><path d="M1043.8541666666667,213.76185200384612h5v1h-5Z" style="fill: white; opacity: 0.7;"></path><path d="M1051.1458333333333,203.59989411923073h5v1h-5Z" style="fill: white; opacity: 0.7;"></path><path d="M1058.4375,202.12726334999996h5v1h-5Z" style="fill: white; opacity: 0.7;"></path><path d="M1065.7291666666667,447.9898691192308h5v1h-5Z" style="fill: white; opacity: 0.7;"></path><path d="M1073.0208333333333,447.2633627730769h5v1h-5Z" style="fill: white; opacity: 0.7;"></path><path d="M1080.3125,447.91942046538463h5v1h-5Z" style="fill: white; opacity: 0.7;"></path><path d="M1087.6041666666667,445.2471902730769h5v1h-5Z" style="fill: white; opacity: 0.7;"></path><path d="M1094.8958333333333,444.35852950384617h5v1h-5Z" style="fill: white; opacity: 0.7;"></path><path d="M1102.1875,445.34676373461537h5v1h-5Z" style="fill: white; opacity: 0.7;"></path><path d="M1109.4791666666667,445.21234585h5v1h-5Z" style="fill: white; opacity: 0.7;"></path><path d="M1116.7708333333333,189.94221738846153h5v1h-5Z" style="fill: white; opacity: 0.7;"></path><path d="M1124.0625,192.10298661923076h5v1h-5Z" style="fill: white; opacity: 0.7;"></path><path d="M1131.3541666666667,195.49593738846147h5v1h-5Z" style="fill: white; opacity: 0.7;"></path><path d="M1138.6458333333333,180.24576508076922h5v1h-5Z" style="fill: white; opacity: 0.7;"></path><path d="M1145.9375,194.59617008076924h5v1h-5Z" style="fill: white; opacity: 0.7;"></path><path d="M1153.2291666666667,199.64666815769232h5v1h-5Z" style="fill: white; opacity: 0.7;"></path><path d="M1160.5208333333333,203.55843642692304h5v1h-5Z" style="fill: white; opacity: 0.7;"></path><path d="M1167.8125,203.43574681153848h5v1h-5Z" style="fill: white; opacity: 0.7;"></path><path d="M1175.1041666666667,182.5156118115384h5v1h-5Z" style="fill: white; opacity: 0.7;"></path><path d="M1182.3958333333333,204.52835277307696h5v1h-5Z" style="fill: white; opacity: 0.7;"></path><path d="M1189.6875,193.0539079653846h5v1h-5Z" style="fill: white; opacity: 0.7;"></path><path d="M1196.9791666666667,199.63825527307694h5v1h-5Z" style="fill: white; opacity: 0.7;"></path><path d="M1204.2708333333333,204.53887835h5v1h-5Z" style="fill: white; opacity: 0.7;"></path><path d="M1211.5625,207.83752950384616h5v1h-5Z" style="fill: white; opacity: 0.7;"></path><path d="M1218.8541666666667,205.70029469615383h5v1h-5Z" style="fill: white; opacity: 0.7;"></path><path d="M1226.1458333333333,247.01726777307692h5v1h-5Z" style="fill: white; opacity: 0.7;"></path><path d="M1233.4375,297.6585781576923h5v1h-5Z" style="fill: white; opacity: 0.7;"></path><path d="M1240.7291666666667,300.63052969615387h5v1h-5Z" style="fill: white; opacity: 0.7;"></path><path d="M1248.0208333333333,294.0926087346154h5v1h-5Z" style="fill: white; opacity: 0.7;"></path><path d="M1255.3125,294.69129450384617h5v1h-5Z" style="fill: white; opacity: 0.7;"></path><path d="M1262.6041666666667,290.6108637346154h5v1h-5Z" style="fill: white; opacity: 0.7;"></path><path d="M1269.8958333333333,299.1195502730769h5v1h-5Z" style="fill: white; opacity: 0.7;"></path><path d="M1277.1875,295.67807411923076h5v1h-5Z" style="fill: white; opacity: 0.7;"></path><path d="M1284.4791666666667,295.0273729653846h5v1h-5Z" style="fill: white; opacity: 0.7;"></path><path d="M1291.7708333333333,296.60390661923077h5v1h-5Z" style="fill: white; opacity: 0.7;"></path><path d="M1299.0625,298.64883700384615h5v1h-5Z" style="fill: white; opacity: 0.7;"></path><path d="M1306.3541666666667,299.0891204653846h5v1h-5Z" style="fill: white; opacity: 0.7;"></path><path d="M1313.6458333333333,299.36232392692307h5v1h-5Z" style="fill: white; opacity: 0.7;"></path><path d="M1320.9375,296.6311685423077h5v1h-5Z" style="fill: white; opacity: 0.7;"></path><path d="M1328.2291666666667,299.6781352730769h5v1h-5Z" style="fill: white; opacity: 0.7;"></path><path d="M1335.5208333333333,302.30773335000003h5v1h-5Z" style="fill: white; opacity: 0.7;"></path><path d="M1342.8125,302.4780473884615h5v1h-5Z" style="fill: white; opacity: 0.7;"></path><path d="M1350.1041666666667,298.90118969615384h5v1h-5Z" style="fill: white; opacity: 0.7;"></path><path d="M1357.3958333333333,301.6763339269231h5v1h-5Z" style="fill: white; opacity: 0.7;"></path><path d="M1364.6875,301.39929450384614h5v1h-5Z" style="fill: white; opacity: 0.7;"></path><path d="M1371.9791666666667,297.01658758076917h5v1h-5Z" style="fill: white; opacity: 0.7;"></path><path d="M1379.2708333333333,293.54418527307695h5v1h-5Z" style="fill: white; opacity: 0.7;"></path><path d="M1386.5625,296.8906112346154h5v1h-5Z" style="fill: white; opacity: 0.7;"></path><path d="M1393.8541666666667,297.79369181153845h5v1h-5Z" style="fill: white; opacity: 0.7;"></path></g><g class="mark-group role-axis"><g transform="translate(0.5,500.5)"><path class="background" d="M0,0h0v0h0Z" style="pointer-events: none; fill: none;"></path><g><g class="mark-rule role-axis-domain" style="pointer-events: none;"><line transform="translate(0,0)" x2="1400" y2="0" style="fill: none; stroke: #888; stroke-width: 1; opacity: 1;"></line></g><g class="mark-text role-axis-title" style="pointer-events: none;"><text text-anchor="middle" transform="translate(700,13)" style="font-family: sans-serif; font-size: 11px; font-weight: bold; fill: #000; opacity: 1;">Commit</text></g></g></g></g><g class="mark-group role-axis"><g transform="translate(0.5,0.5)"><path class="background" d="M0,0h0v0h0Z" style="pointer-events: none; fill: none;"></path><g><g class="mark-rule role-axis-tick" style="pointer-events: none;"><line transform="translate(0,500)" x2="-5" y2="0" style="fill: none; stroke: #888; stroke-width: 1; opacity: 1;"></line><line transform="translate(0,462)" x2="-5" y2="0" style="fill: none; stroke: #888; stroke-width: 1; opacity: 1;"></line><line transform="translate(0,423)" x2="-5" y2="0" style="fill: none; stroke: #888; stroke-width: 1; opacity: 1;"></line><line transform="translate(0,385)" x2="-5" y2="0" style="fill: none; stroke: #888; stroke-width: 1; opacity: 1;"></line><line transform="translate(0,346)" x2="-5" y2="0" style="fill: none; stroke: #888; stroke-width: 1; opacity: 1;"></line><line transform="translate(0,308)" x2="-5" y2="0" style="fill: none; stroke: #888; stroke-width: 1; opacity: 1;"></line><line transform="translate(0,269)" x2="-5" y2="0" style="fill: none; stroke: #888; stroke-width: 1; opacity: 1;"></line><line transform="translate(0,231)" x2="-5" y2="0" style="fill: none; stroke: #888; stroke-width: 1; opacity: 1;"></line><line transform="translate(0,192)" x2="-5" y2="0" style="fill: none; stroke: #888; stroke-width: 1; opacity: 1;"></line><line transform="translate(0,154)" x2="-5" y2="0" style="fill: none; stroke: #888; stroke-width: 1; opacity: 1;"></line><line transform="translate(0,115)" x2="-5" y2="0" style="fill: none; stroke: #888; stroke-width: 1; opacity: 1;"></line><line transform="translate(0,77)" x2="-5" y2="0" style="fill: none; stroke: #888; stroke-width: 1; opacity: 1;"></line><line transform="translate(0,38)" x2="-5" y2="0" style="fill: none; stroke: #888; stroke-width: 1; opacity: 1;"></line><line transform="translate(0,0)" x2="-5" y2="0" style="fill: none; stroke: #888; stroke-width: 1; opacity: 1;"></line></g><g class="mark-text role-axis-label" style="pointer-events: none;"><text text-anchor="end" transform="translate(-7,503)" style="font-family: sans-serif; font-size: 10px; fill: #000; opacity: 1;">0.0</text><text text-anchor="end" transform="translate(-7,464.53846153846155)" style="font-family: sans-serif; font-size: 10px; fill: #000; opacity: 1;">0.2</text><text text-anchor="end" transform="translate(-7,426.0769230769231)" style="font-family: sans-serif; font-size: 10px; fill: #000; opacity: 1;">0.4</text><text text-anchor="end" transform="translate(-7,387.61538461538464)" style="font-family: sans-serif; font-size: 10px; fill: #000; opacity: 1;">0.6</text><text text-anchor="end" transform="translate(-7,349.15384615384613)" style="font-family: sans-serif; font-size: 10px; fill: #000; opacity: 1;">0.8</text><text text-anchor="end" transform="translate(-7,310.69230769230774)" style="font-family: sans-serif; font-size: 10px; fill: #000; opacity: 1;">1.0</text><text text-anchor="end" transform="translate(-7,272.2307692307693)" style="font-family: sans-serif; font-size: 10px; fill: #000; opacity: 1;">1.2</text><text text-anchor="end" transform="translate(-7,233.76923076923077)" style="font-family: sans-serif; font-size: 10px; fill: #000; opacity: 1;">1.4</text><text text-anchor="end" transform="translate(-7,195.30769230769226)" style="font-family: sans-serif; font-size: 10px; fill: #000; opacity: 1;">1.6</text><text text-anchor="end" transform="translate(-7,156.84615384615387)" style="font-family: sans-serif; font-size: 10px; fill: #000; opacity: 1;">1.8</text><text text-anchor="end" transform="translate(-7,118.38461538461542)" style="font-family: sans-serif; font-size: 10px; fill: #000; opacity: 1;">2.0</text><text text-anchor="end" transform="translate(-7,79.9230769230769)" style="font-family: sans-serif; font-size: 10px; fill: #000; opacity: 1;">2.2</text><text text-anchor="end" transform="translate(-7,41.46153846153851)" style="font-family: sans-serif; font-size: 10px; fill: #000; opacity: 1;">2.4</text><text text-anchor="end" transform="translate(-7,3)" style="font-family: sans-serif; font-size: 10px; fill: #000; opacity: 1;">2.6</text></g><g class="mark-rule role-axis-domain" style="pointer-events: none;"><line transform="translate(0,500)" x2="0" y2="-500" style="fill: none; stroke: #888; stroke-width: 1; opacity: 1;"></line></g><g class="mark-text role-axis-title" style="pointer-events: none;"><text text-anchor="middle" transform="translate(-24.9013671875,250) rotate(-90) translate(0,-2)" style="font-family: sans-serif; font-size: 11px; font-weight: bold; fill: #000; opacity: 1;">Time</text></g></g></g></g></g></g></g></g></svg>