<svg class="marks" width="1446" height="530" viewBox="0 0 1446 530" version="1.1" xmlns="http://www.w3.org/2000/svg" xmlns:xlink="http://www.w3.org/1999/xlink"><g transform="translate(41,10)"><g class="mark-group role-frame root"><g transform="translate(0,0)"><path class="background" d="M0.5,0.5h1400v500h-1400Z" style="fill: none; stroke: #ddd;"></path><g><g class="mark-group role-axis"><g transform="translate(0.5,0.5)"><path class="background" d="M0,0h0v0h0Z" style="pointer-events: none; fill: none;"></path><g><g class="mark-rule role-axis-grid" style="pointer-events: none;"><line transform="translate(0,500)" x2="1400" y2="0" style="fill: none; stroke: #ddd; stroke-width: 1; opacity: 1;"></line><line transform="translate(0,462)" x2="1400" y2="0" style="fill: none; stroke: #ddd; stroke-width: 1; opacity: 1;"></line><line transform="translate(0,423)" x2="1400" y2="0" style="fill: none; stroke: #ddd; stroke-width: 1; opacity: 1;"></line><line transform="translate(0,385)" x2="1400" y2="0" style="fill: none; stroke: #ddd; stroke-width: 1; opacity: 1;"></line><line transform="translate(0,346)" x2="1400" y2="0" style="fill: none; stroke: #ddd; stroke-width: 1; opacity: 1;"></line><line transform="translate(0,308)" x2="1400" y2="0" style="fill: none; stroke: #ddd; stroke-width: 1; opacity: 1;"></line><line transform="translate(0,269)" x2="1400" y2="0" style="fill: none; stroke: #ddd; stroke-width: 1; opacity: 1;"></line><line transform="translate(0,231)" x2="1400" y2="0" style="fill: none; stroke: #ddd; stroke-width: 1; opacity: 1;"></line><line transform="translate(0,192)" x2="1400" y2="0" style="fill: none; stroke: #ddd; stroke-width: 1; opacity: 1;"></line><line transform="translate(0,154)" x2="1400" y2="0" style="fill: none; stroke: #ddd; stroke-width: 1; opacity: 1;"></line><line transform="translate(0,115)" x2="1400" y2="0" style="fill: none; stroke: #ddd; stroke-width: 1; opacity: 1;"></line><line transform="translate(0,77)" x2="1400" y2="0" style="fill: none; stroke: #ddd; stroke-width: 1; opacity: 1;"></line><line transform="translate(0,38)" x2="1400" y2="0" style="fill: none; stroke: #ddd; stroke-width: 1; opacity: 1;"></line><line transform="translate(0,0)" x2="1400" y2="0" style="fill: none; stroke: #ddd; stroke-width: 1; opacity: 1;"></line></g></g></g></g><g class="mark-rule role-mark layer_0_marks"><line transform="translate(4.294478527607362,499.2259781576923)" x2="0" y2="-0.020601346153796385" style="fill: none; stroke: black;"></line><line transform="translate(12.883435582822086,499.1819662346154)" x2="0" y2="-0.014442307692320355" style="fill: none; stroke: black;"></line><line transform="translate(21.47239263803681,241.17202104230768)" x2="0" y2="-1.7190505769230526" style="fill: none; stroke: black;"></line><line transform="translate(30.061349693251536,254.2415939269231)" x2="0" y2="-2.875230384615378" style="fill: none; stroke: black;"></line><line transform="translate(38.65030674846626,490.48595758076925)" x2="0" y2="-0.1906461538461599" style="fill: none; stroke: black;"></line><line transform="translate(47.23926380368098,253.20863661923076)" x2="0" y2="-2.0121096153846167" style="fill: none; stroke: black;"></line><line transform="translate(55.828220858895705,246.67775450384616)" x2="0" y2="-0.8991542307692555" style="fill: none; stroke: black;"></line><line transform="translate(64.41717791411044,253.40126123461536)" x2="0" y2="-6.621520384615366" style="fill: none; stroke: black;"></line><line transform="translate(73.00613496932516,271.6123362346153)" x2="0" y2="-1.2248678846153211" style="fill: none; stroke: black;"></line><line transform="translate(81.59509202453988,329.09962988846155)" x2="0" y2="-3.0122298076923357" style="fill: none; stroke: black;"></line><line transform="translate(90.1840490797546,328.97660335)" x2="0" y2="-0.029687115384604112" style="fill: none; stroke: black;"></line><line transform="translate(98.77300613496934,327.8022748884615)" x2="0" y2="-6.925914615384613" style="fill: none; stroke: black;"></line><line transform="translate(107.36196319018406,332.00278085)" x2="0" y2="-0.24807096153847397" style="fill: none; stroke: black;"></line><line transform="translate(115.95092024539878,334.34094488846154)" x2="0" y2="-1.1911655769230833" style="fill: none; stroke: black;"></line><line transform="translate(124.53987730061351,282.96626085)" x2="0" y2="-1.437543461538496" style="fill: none; stroke: black;"></line><line transform="translate(133.12883435582822,283.34138585000005)" x2="0" y2="-0.6371644230770244" style="fill: none; stroke: black;"></line><line transform="translate(141.71779141104295,278.64092661923075)" x2="0" y2="-11.491457115384605" style="fill: none; stroke: black;"></line><line transform="translate(150.3067484662577,260.96341488846156)" x2="0" y2="-0.25910019230769876" style="fill: none; stroke: black;"></line><line transform="translate(158.8957055214724,268.90538200384617)" x2="0" y2="-4.470119423076994" style="fill: none; stroke: black;"></line><line transform="translate(167.48466257668713,272.7926996961538)" x2="0" y2="-7.0016674999999395" style="fill: none; stroke: black;"></line><line transform="translate(176.07361963190183,261.0215973884616)" x2="0" y2="-7.617935000000045" style="fill: none; stroke: black;"></line><line transform="translate(184.66257668711657,260.85797431153844)" x2="0" y2="-1.4537082692307308" style="fill: none; stroke: black;"></line><line transform="translate(193.2515337423313,254.8757764269231)" x2="0" y2="-22.44728846153845" style="fill: none; stroke: black;"></line><line transform="translate(201.840490797546,262.2726346961539)" x2="0" y2="-7.943240384615422" style="fill: none; stroke: black;"></line><line transform="translate(210.42944785276075,258.5535627730769)" x2="0" y2="-0.6401325000000497" style="fill: none; stroke: black;"></line><line transform="translate(219.01840490797548,264.64365277307695)" x2="0" y2="-0.5219730769231319" style="fill: none; stroke: black;"></line><line transform="translate(227.6073619631902,194.32060354230765)" x2="0" y2="-1.005901153846139" style="fill: none; stroke: black;"></line><line transform="translate(236.19631901840492,193.17415969615382)" x2="0" y2="-2.9651561538461237" style="fill: none; stroke: black;"></line><line transform="translate(244.78527607361966,190.60234123461532)" x2="0" y2="-1.5423928846153103" style="fill: none; stroke: black;"></line><line transform="translate(253.37423312883436,189.0918014269231)" x2="0" y2="-1.2734592307692765" style="fill: none; stroke: black;"></line><line transform="translate(261.96319018404904,191.7388773884615)" x2="0" y2="-1.2709357692307321" style="fill: none; stroke: black;"></line><line transform="translate(270.5521472392638,247.83881585)" x2="0" y2="-1.0096274999999935" style="fill: none; stroke: black;"></line><line transform="translate(279.1411042944785,248.55979661923078)" x2="0" y2="-0.5001384615384552" style="fill: none; stroke: black;"></line><line transform="translate(287.73006134969324,255.1045602730769)" x2="0" y2="-6.569658076923105" style="fill: none; stroke: black;"></line><line transform="translate(296.319018404908,256.7876539269231)" x2="0" y2="-2.481827692307718" style="fill: none; stroke: black;"></line><line transform="translate(304.90797546012266,252.29738258076924)" x2="0" y2="-5.252630961538443" style="fill: none; stroke: black;"></line><line transform="translate(313.4969325153374,249.7717781576923)" x2="0" y2="-1.8507346153846527" style="fill: none; stroke: black;"></line><line transform="translate(322.0858895705521,258.1738125807692)" x2="0" y2="-0.5887307692307786" style="fill: none; stroke: black;"></line><line transform="translate(330.67484662576686,257.7059225807692)" x2="0" y2="-4.584159038461507" style="fill: none; stroke: black;"></line><line transform="translate(339.2638036809816,268.0807737346154)" x2="0" y2="-3.926899423076918" style="fill: none; stroke: black;"></line><line transform="translate(347.8527607361963,260.42592835)" x2="0" y2="-1.433250192307753" style="fill: none; stroke: black;"></line><line transform="translate(356.441717791411,264.6236814269231)" x2="0" y2="-5.922826346153897" style="fill: none; stroke: black;"></line><line transform="translate(365.03067484662574,271.6542429653846)" x2="0" y2="-6.224876538461501" style="fill: none; stroke: black;"></line><line transform="translate(373.6196319018405,269.16966296538465)" x2="0" y2="-0.9686003846154563" style="fill: none; stroke: black;"></line><line transform="translate(382.2085889570552,271.2584762346154)" x2="0" y2="-3.0132744230769504" style="fill: none; stroke: black;"></line><line transform="translate(390.79754601226995,269.01303354230765)" x2="0" y2="-1.8489076923076482" style="fill: none; stroke: black;"></line><line transform="translate(399.3865030674846,267.4137018115385)" x2="0" y2="-0.3509786538461981" style="fill: none; stroke: black;"></line><line transform="translate(407.97546012269936,269.4548560423077)" x2="0" y2="-3.176122884615438" style="fill: none; stroke: black;"></line><line transform="translate(416.5644171779141,257.83684238846155)" x2="0" y2="-2.541839423076908" style="fill: none; stroke: black;"></line><line transform="translate(425.15337423312883,257.5792931576923)" x2="0" y2="-0.48759384615379986" style="fill: none; stroke: black;"></line><line transform="translate(433.74233128834356,257.13180604230774)" x2="0" y2="-4.044532692307769" style="fill: none; stroke: black;"></line><line transform="translate(442.33128834355824,257.27496335)" x2="0" y2="-0.035077692307709185" style="fill: none; stroke: black;"></line><line transform="translate(450.920245398773,243.05653988846154)" x2="0" y2="-8.938162884615338" style="fill: none; stroke: black;"></line><line transform="translate(459.5092024539877,230.82655950384617)" x2="0" y2="-6.174037500000054" style="fill: none; stroke: black;"></line><line transform="translate(468.09815950920245,254.6297281576923)" x2="0" y2="-4.399420576923092" style="fill: none; stroke: black;"></line><line transform="translate(476.6871165644172,326.3897100807692)" x2="0" y2="-3.3312265384615216" style="fill: none; stroke: black;"></line><line transform="translate(485.2760736196319,326.6093177730769)" x2="0" y2="-1.7407173076923073" style="fill: none; stroke: black;"></line><line transform="translate(493.8650306748466,325.5702925807692)" x2="0" y2="-0.4663698076922742" style="fill: none; stroke: black;"></line><line transform="translate(502.4539877300613,322.1008400807692)" x2="0" y2="-0.47438980769231875" style="fill: none; stroke: black;"></line><line transform="translate(511.04294478527606,266.6514527730769)" x2="0" y2="-0.5345086538461601" style="fill: none; stroke: black;"></line><line transform="translate(519.6319018404907,264.82362873461534)" x2="0" y2="-5.156110192307665" style="fill: none; stroke: black;"></line><line transform="translate(528.2208588957055,264.11105911923073)" x2="0" y2="-0.07808192307686568" style="fill: none; stroke: black;"></line><line transform="translate(536.8098159509202,269.10948623461536)" x2="0" y2="-0.351604230769226" style="fill: none; stroke: black;"></line><line transform="translate(545.398773006135,258.7477918115385)" x2="0" y2="-3.3345507692307876" style="fill: none; stroke: black;"></line><line transform="translate(553.9877300613497,268.78340585)" x2="0" y2="-0.8982648076922715" style="fill: none; stroke: black;"></line><line transform="translate(562.5766871165644,278.9148616192308)" x2="0" y2="-2.8557419230769483" style="fill: none; stroke: black;"></line><line transform="translate(571.1656441717791,253.73407911923076)" x2="0" y2="-0.4000590384615066" style="fill: none; stroke: black;"></line><line transform="translate(579.7546012269938,254.89483469615385)" x2="0" y2="-1.9238617307692607" style="fill: none; stroke: black;"></line><line transform="translate(588.3435582822086,256.34469585)" x2="0" y2="-0.49174807692310196" style="fill: none; stroke: black;"></line><line transform="translate(596.9325153374233,208.24292238846152)" x2="0" y2="-0.990197500000022" style="fill: none; stroke: black;"></line><line transform="translate(605.521472392638,208.3491560423077)" x2="0" y2="-1.6540125000000216" style="fill: none; stroke: black;"></line><line transform="translate(614.1104294478528,208.03041008076917)" x2="0" y2="-0.1231324999998833" style="fill: none; stroke: black;"></line><line transform="translate(622.6993865030674,206.3076450807692)" x2="0" y2="-0.9328676923076387" style="fill: none; stroke: black;"></line><line transform="translate(631.2883435582822,207.78465296538462)" x2="0" y2="-0.1990638461538765" style="fill: none; stroke: black;"></line><line transform="translate(639.8773006134969,207.5003850807692)" x2="0" y2="-0.030003269230803653" style="fill: none; stroke: black;"></line><line transform="translate(648.4662576687116,208.6775562346154)" x2="0" y2="-1.9390051923076612" style="fill: none; stroke: black;"></line><line transform="translate(657.0552147239264,208.53404161923078)" x2="0" y2="-2.0785309615384904" style="fill: none; stroke: black;"></line><line transform="translate(665.6441717791411,210.01546681153843)" x2="0" y2="-3.817860961538429" style="fill: none; stroke: black;"></line><line transform="translate(674.2331288343559,208.39966181153846)" x2="0" y2="-2.1324928846154307" style="fill: none; stroke: black;"></line><line transform="translate(682.8220858895705,209.90693411923075)" x2="0" y2="-2.202789999999993" style="fill: none; stroke: black;"></line><line transform="translate(691.4110429447852,203.93323488846153)" x2="0" y2="-1.2243157692308273" style="fill: none; stroke: black;"></line><line transform="translate(700,202.43824065769235)" x2="0" y2="-1.261778269230831" style="fill: none; stroke: black;"></line><line transform="translate(708.5889570552147,204.25729931153847)" x2="0" y2="-10.298831538461513" style="fill: none; stroke: black;"></line><line transform="translate(717.1779141104295,203.68078796538464)" x2="0" y2="-3.160798076923129" style="fill: none; stroke: black;"></line><line transform="translate(725.7668711656441,236.1887835423077)" x2="0" y2="-0.15326250000003938" style="fill: none; stroke: black;"></line><line transform="translate(734.3558282208589,259.03373469615383)" x2="0" y2="-1.6703774999999723" style="fill: none; stroke: black;"></line><line transform="translate(742.9447852760736,259.7533956576923)" x2="0" y2="-2.8107003846154157" style="fill: none; stroke: black;"></line><line transform="translate(751.5337423312883,269.14473142692304)" x2="0" y2="-3.211918653846112" style="fill: none; stroke: black;"></line><line transform="translate(760.1226993865031,276.05085546538464)" x2="0" y2="-6.179196538461554" style="fill: none; stroke: black;"></line><line transform="translate(768.7116564417178,278.6093327730769)" x2="0" y2="-3.2243988461538606" style="fill: none; stroke: black;"></line><line transform="translate(777.3006134969326,272.8417770038461)" x2="0" y2="-0.6056394230769229" style="fill: none; stroke: black;"></line><line transform="translate(785.8895705521472,270.9216966192307)" x2="0" y2="-0.8137532692306877" style="fill: none; stroke: black;"></line><line transform="translate(794.4785276073619,274.834401426923)" x2="0" y2="-0.5313748076922593" style="fill: none; stroke: black;"></line><line transform="translate(803.0674846625767,221.46062123461542)" x2="0" y2="-0.5637801923077177" style="fill: none; stroke: black;"></line><line transform="translate(811.6564417177914,219.68121488846157)" x2="0" y2="-1.1574651923077113" style="fill: none; stroke: black;"></line><line transform="translate(820.2453987730062,218.14504738846153)" x2="0" y2="-4.893963076923114" style="fill: none; stroke: black;"></line><line transform="translate(828.8343558282209,276.6550106576923)" x2="0" y2="-1.4740296153846089" style="fill: none; stroke: black;"></line><line transform="translate(837.4233128834355,278.1545575807692)" x2="0" y2="-1.5667694230768916" style="fill: none; stroke: black;"></line><line transform="translate(846.0122699386503,273.58828758076925)" x2="0" y2="-0.6373898076923297" style="fill: none; stroke: black;"></line><line transform="translate(854.601226993865,273.66041546538463)" x2="0" y2="-1.7310311538461747" style="fill: none; stroke: black;"></line><line transform="translate(863.1901840490798,273.34848335)" x2="0" y2="-11.90126942307694" style="fill: none; stroke: black;"></line><line transform="translate(871.7791411042945,281.9796841192308)" x2="0" y2="-2.10566096153849" style="fill: none; stroke: black;"></line><line transform="translate(880.3680981595091,275.24126373461536)" x2="0" y2="-2.7645551923076823" style="fill: none; stroke: black;"></line><line transform="translate(888.9570552147239,276.52030700384614)" x2="0" y2="-9.007814615384632" style="fill: none; stroke: black;"></line><line transform="translate(897.5460122699386,263.5019831576923)" x2="0" y2="-0.18741249999999354" style="fill: none; stroke: black;"></line><line transform="translate(906.1349693251534,265.0529110423077)" x2="0" y2="-1.5954388461538542" style="fill: none; stroke: black;"></line><line transform="translate(914.7239263803681,260.6021775807692)" x2="0" y2="-1.2146955769230203" style="fill: none; stroke: black;"></line><line transform="translate(923.3128834355828,263.19704335)" x2="0" y2="-1.7650434615384825" style="fill: none; stroke: black;"></line><line transform="translate(931.9018404907976,258.2935131576923)" x2="0" y2="-2.315108846153862" style="fill: none; stroke: black;"></line><line transform="translate(940.4907975460122,269.62063815769227)" x2="0" y2="-6.648004423076884" style="fill: none; stroke: black;"></line><line transform="translate(949.079754601227,227.33800700384614)" x2="0" y2="-3.675085384615329" style="fill: none; stroke: black;"></line><line transform="translate(957.6687116564417,222.51302354230774)" x2="0" y2="-3.3413428846154147" style="fill: none; stroke: black;"></line><line transform="translate(966.2576687116565,221.42213238846153)" x2="0" y2="-0.8299901923077186" style="fill: none; stroke: black;"></line><line transform="translate(974.8466257668712,225.92856565769227)" x2="0" y2="-0.08272576923076258" style="fill: none; stroke: black;"></line><line transform="translate(983.4355828220858,227.10659508076924)" x2="0" y2="-17.774340000000052" style="fill: none; stroke: black;"></line><line transform="translate(992.0245398773006,230.64312373461536)" x2="0" y2="-3.728737692307675" style="fill: none; stroke: black;"></line><line transform="translate(1000.6134969325153,228.62097758076925)" x2="0" y2="-0.17556923076926978" style="fill: none; stroke: black;"></line><line transform="translate(1009.2024539877301,224.0212404653846)" x2="0" y2="-6.114356153846188" style="fill: none; stroke: black;"></line><line transform="translate(1017.7914110429448,216.0906514269231)" x2="0" y2="-0.5073253846153989" style="fill: none; stroke: black;"></line><line transform="translate(1026.3803680981596,214.99537104230768)" x2="0" y2="-5.351400384615317" style="fill: none; stroke: black;"></line><line transform="translate(1034.9693251533743,215.8789187346154)" x2="0" y2="-1.1894996153846478" style="fill: none; stroke: black;"></line><line transform="translate(1043.5582822085892,218.33769585)" x2="0" y2="-1.4992930769230952" style="fill: none; stroke: black;"></line><line transform="translate(1052.1472392638038,217.13122950384616)" x2="0" y2="-12.950747500000034" style="fill: none; stroke: black;"></line><line transform="translate(1060.7361963190185,206.64354488846146)" x2="0" y2="-2.3921955769230294" style="fill: none; stroke: black;"></line><line transform="translate(1069.3251533742332,197.38670623461536)" x2="0" y2="-3.8210563461538527" style="fill: none; stroke: black;"></line><line transform="translate(1077.9141104294479,199.03054700384615)" x2="0" y2="-4.319708846153844" style="fill: none; stroke: black;"></line><line transform="translate(1086.5030674846628,201.00036969615383)" x2="0" y2="-2.1163474999999607" style="fill: none; stroke: black;"></line><line transform="translate(1095.0920245398775,195.50865219615383)" x2="0" y2="-9.461716923076892" style="fill: none; stroke: black;"></line><line transform="translate(1103.6809815950921,196.88596431153843)" x2="0" y2="-0.6039701923076564" style="fill: none; stroke: black;"></line><line transform="translate(1112.2699386503068,206.6068562346154)" x2="0" y2="-6.324660961538541" style="fill: none; stroke: black;"></line><line transform="translate(1120.8588957055215,206.57515008076928)" x2="0" y2="-1.5513869230770183" style="fill: none; stroke: black;"></line><line transform="translate(1129.4478527607364,205.3870304653846)" x2="0" y2="-0.7048326923077184" style="fill: none; stroke: black;"></line><line transform="translate(1138.036809815951,208.19954450384614)" x2="0" y2="-5.09249730769227" style="fill: none; stroke: black;"></line><line transform="translate(1146.6257668711658,206.26359988846156)" x2="0" y2="-0.9274540384615761" style="fill: none; stroke: black;"></line><line transform="translate(1155.2147239263804,204.72648161923075)" x2="0" y2="-1.256490384615347" style="fill: none; stroke: black;"></line><line transform="translate(1163.803680981595,206.46059950384614)" x2="0" y2="-4.673630384615365" style="fill: none; stroke: black;"></line><line transform="translate(1172.39263803681,210.77286335000002)" x2="0" y2="-3.7802028846154485" style="fill: none; stroke: black;"></line><line transform="translate(1180.9815950920247,211.06138488846153)" x2="0" y2="-1.9585146153846154" style="fill: none; stroke: black;"></line><line transform="translate(1189.5705521472394,209.10019623461534)" x2="0" y2="-0.8322807692307492" style="fill: none; stroke: black;"></line><line transform="translate(1198.159509202454,252.28570181153844)" x2="0" y2="-1.8292736538461725" style="fill: none; stroke: black;"></line><line transform="translate(1206.7484662576687,301.40623854230773)" x2="0" y2="-0.24964384615390145" style="fill: none; stroke: black;"></line><line transform="translate(1215.3374233128836,301.92372085)" x2="0" y2="-0.671306538461522" style="fill: none; stroke: black;"></line><line transform="translate(1223.9263803680983,298.30592642692307)" x2="0" y2="-1.3633396153845752" style="fill: none; stroke: black;"></line><line transform="translate(1232.515337423313,299.64283508076926)" x2="0" y2="-0.2295303846153729" style="fill: none; stroke: black;"></line><line transform="translate(1241.1042944785277,294.6155600807692)" x2="0" y2="-0.7096149999999852" style="fill: none; stroke: black;"></line><line transform="translate(1249.6932515337423,300.8263710423077)" x2="0" y2="-0.6288121153846191" style="fill: none; stroke: black;"></line><line transform="translate(1258.2822085889572,297.59019373461535)" x2="0" y2="-0.15839076923077755" style="fill: none; stroke: black;"></line><line transform="translate(1266.871165644172,299.3060012346154)" x2="0" y2="-2.3609761538461385" style="fill: none; stroke: black;"></line><line transform="translate(1275.4601226993866,300.30182450384615)" x2="0" y2="-2.201335192307681" style="fill: none; stroke: black;"></line><line transform="translate(1284.0490797546013,300.77953200384616)" x2="0" y2="-0.5937040384615102" style="fill: none; stroke: black;"></line><line transform="translate(1292.638036809816,301.8368239269231)" x2="0" y2="-1.0847646153846426" style="fill: none; stroke: black;"></line><line transform="translate(1301.2269938650309,303.4472356576923)" x2="0" y2="-2.9580619230769116" style="fill: none; stroke: black;"></line><line transform="translate(1309.8159509202455,300.35336488846156)" x2="0" y2="-1.3166034615384774" style="fill: none; stroke: black;"></line><line transform="translate(1318.4049079754602,301.08896911923074)" x2="0" y2="-0.47582461538456755" style="fill: none; stroke: black;"></line><line transform="translate(1326.993865030675,303.88421431153847)" x2="0" y2="-0.061823461538438096" style="fill: none; stroke: black;"></line><line transform="translate(1335.5828220858896,304.11750488846155)" x2="0" y2="-1.0214080769231373" style="fill: none; stroke: black;"></line><line transform="translate(1344.1717791411045,305.0621506576923)" x2="0" y2="-3.376265384615408" style="fill: none; stroke: black;"></line><line transform="translate(1352.7607361963192,304.7685171961539)" x2="0" y2="-0.28682576923080205" style="fill: none; stroke: black;"></line><line transform="translate(1361.3496932515338,303.3163806576923)" x2="0" y2="-1.3314534615385014" style="fill: none; stroke: black;"></line><line transform="translate(1369.9386503067485,302.39426700384615)" x2="0" y2="-3.699989999999957" style="fill: none; stroke: black;"></line><line transform="translate(1378.5276073619632,300.4620218115385)" x2="0" y2="-1.39097134615389" style="fill: none; stroke: black;"></line><line transform="translate(1387.116564417178,300.81587161923073)" x2="0" y2="-2.466229038461506" style="fill: none; stroke: black;"></line><line transform="translate(1395.7055214723928,300.58783527307696)" x2="0" y2="-1.8962375000000407" style="fill: none; stroke: black;"></line></g><g class="mark-rule role-mark layer_1_marks"><line transform="translate(4.294478527607362,498.9552262346154)" x2="0" y2="-1.0222973076923267" style="fill: none; stroke: black;"></line><line transform="translate(12.883435582822086,499.1511312346154)" x2="0" y2="-0.5479790384615058" style="fill: none; stroke: black;"></line><line transform="translate(21.47239263803681,235.29795873461535)" x2="0" y2="-4.291413653846121" style="fill: none; stroke: black;"></line><line transform="translate(30.061349693251536,246.1823225807692)" x2="0" y2="-0.8226555769230686" style="fill: none; stroke: black;"></line><line transform="translate(38.65030674846626,489.93789161923075)" x2="0" y2="-3.2306294230768913" style="fill: none; stroke: black;"></line><line transform="translate(47.23926380368098,248.10687104230772)" x2="0" y2="-2.005842692307681" style="fill: none; stroke: black;"></line><line transform="translate(55.828220858895705,242.6902589269231)" x2="0" y2="-8.341648846153873" style="fill: none; stroke: black;"></line><line transform="translate(64.41717791411044,241.81800931153845)" x2="0" y2="-4.015444807692347" style="fill: none; stroke: black;"></line><line transform="translate(73.00613496932516,269.62372161923076)" x2="0" y2="-14.97848730769229" style="fill: none; stroke: black;"></line><line transform="translate(81.59509202453988,325.3494829653846)" x2="0" y2="-0.47675788461538104" style="fill: none; stroke: black;"></line><line transform="translate(90.1840490797546,325.7467287346154)" x2="0" y2="-2.8500961538461524" style="fill: none; stroke: black;"></line><line transform="translate(98.77300613496934,319.32327911923073)" x2="0" y2="-5.599193846153867" style="fill: none; stroke: black;"></line><line transform="translate(107.36196319018406,317.3073781576923)" x2="0" y2="-2.491571923076947" style="fill: none; stroke: black;"></line><line transform="translate(115.95092024539878,329.8345279653846)" x2="0" y2="-4.680857307692349" style="fill: none; stroke: black;"></line><line transform="translate(124.53987730061351,276.43475335)" x2="0" y2="-1.569923846153813" style="fill: none; stroke: black;"></line><line transform="translate(133.12883435582822,278.82525508076924)" x2="0" y2="-10.33320365384617" style="fill: none; stroke: black;"></line><line transform="translate(141.71779141104295,224.0338623884615)" x2="0" y2="-35.693067884615346" style="fill: none; stroke: black;"></line><line transform="translate(150.3067484662577,240.56588411923082)" x2="0" y2="-77.73219961538473" style="fill: none; stroke: black;"></line><line transform="translate(158.8957055214724,256.2217910423077)" x2="0" y2="-2.486140000000006" style="fill: none; stroke: black;"></line><line transform="translate(167.48466257668713,257.15724392692306)" x2="0" y2="-103.97897730769228" style="fill: none; stroke: black;"></line><line transform="translate(176.07361963190183,235.27289315769235)" x2="0" y2="-210.81022307692308" style="fill: none; stroke: black;"></line><line transform="translate(184.66257668711657,254.89387546538464)" x2="0" y2="-3.2937659615384973" style="fill: none; stroke: black;"></line><line transform="translate(193.2515337423313,213.6697793115385)" x2="0" y2="-4.010078269230803" style="fill: none; stroke: black;"></line><line transform="translate(201.840490797546,236.22095277307693)" x2="0" y2="-8.19368750000001" style="fill: none; stroke: black;"></line><line transform="translate(210.42944785276075,255.18546104230768)" x2="0" y2="-26.194670961538463" style="fill: none; stroke: black;"></line><line transform="translate(219.01840490797548,258.96720392692305)" x2="0" y2="-46.63402730769229" style="fill: none; stroke: black;"></line><line transform="translate(227.6073619631902,189.3325927730769)" x2="0" y2="-2.0238653846154193" style="fill: none; stroke: black;"></line><line transform="translate(236.19631901840492,182.1527996961538)" x2="0" y2="-2.0738907692307293" style="fill: none; stroke: black;"></line><line transform="translate(244.78527607361966,188.81447334999996)" x2="0" y2="-0.9693776923076598" style="fill: none; stroke: black;"></line><line transform="translate(253.37423312883436,185.9673175807692)" x2="0" y2="-0.3219353846153581" style="fill: none; stroke: black;"></line><line transform="translate(261.96319018404904,185.2920548884615)" x2="0" y2="-1.3195596153846054" style="fill: none; stroke: black;"></line><line transform="translate(270.5521472392638,244.98709585)" x2="0" y2="-8.737209807692352" style="fill: none; stroke: black;"></line><line transform="translate(279.1411042944785,241.72876911923072)" x2="0" y2="-1.0361463461538278" style="fill: none; stroke: black;"></line><line transform="translate(287.73006134969324,245.47265969615384)" x2="0" y2="-27.01617692307687" style="fill: none; stroke: black;"></line><line transform="translate(296.319018404908,246.75372488846153)" x2="0" y2="-3.230287692307627" style="fill: none; stroke: black;"></line><line transform="translate(304.90797546012266,242.45684681153847)" x2="0" y2="-36.43776096153846" style="fill: none; stroke: black;"></line><line transform="translate(313.4969325153374,244.33107104230766)" x2="0" y2="-40.37086865384612" style="fill: none; stroke: black;"></line><line transform="translate(322.0858895705521,237.28028008076922)" x2="0" y2="-28.97541576923078" style="fill: none; stroke: black;"></line><line transform="translate(330.67484662576686,229.37689738846154)" x2="0" y2="-27.57586057692305" style="fill: none; stroke: black;"></line><line transform="translate(339.2638036809816,256.10065431153845)" x2="0" y2="-4.327214999999967" style="fill: none; stroke: black;"></line><line transform="translate(347.8527607361963,239.2767156576923)" x2="0" y2="-3.9813884615384154" style="fill: none; stroke: black;"></line><line transform="translate(356.441717791411,254.84266988846153)" x2="0" y2="-6.672433653846156" style="fill: none; stroke: black;"></line><line transform="translate(365.03067484662574,253.4956548884615)" x2="0" y2="-4.224348461538426" style="fill: none; stroke: black;"></line><line transform="translate(373.6196319018405,260.8550106576923)" x2="0" y2="-1.839688461538401" style="fill: none; stroke: black;"></line><line transform="translate(382.2085889570552,266.21718604230773)" x2="0" y2="-0.29587730769236487" style="fill: none; stroke: black;"></line><line transform="translate(390.79754601226995,243.34757296538464)" x2="0" y2="-5.433965384615419" style="fill: none; stroke: black;"></line><line transform="translate(399.3865030674846,266.7597841192308)" x2="0" y2="-21.956375192307775" style="fill: none; stroke: black;"></line><line transform="translate(407.97546012269936,262.83821123461536)" x2="0" y2="-10.522317307692276" style="fill: none; stroke: black;"></line><line transform="translate(416.5644171779141,246.6670529653846)" x2="0" y2="-3.3076671153845894" style="fill: none; stroke: black;"></line><line transform="translate(425.15337423312883,253.63910661923077)" x2="0" y2="-6.5773207692307665" style="fill: none; stroke: black;"></line><line transform="translate(433.74233128834356,244.08162585)" x2="0" y2="-1.3054644230768702" style="fill: none; stroke: black;"></line><line transform="translate(442.33128834355824,252.58101969615385)" x2="0" y2="-16.784473461538454" style="fill: none; stroke: black;"></line><line transform="translate(450.920245398773,233.47241469615386)" x2="0" y2="-11.039909423076892" style="fill: none; stroke: black;"></line><line transform="translate(459.5092024539877,219.96349642692303)" x2="0" y2="-7.922191346153795" style="fill: none; stroke: black;"></line><line transform="translate(468.09815950920245,239.58534334999996)" x2="0" y2="-14.418346538461492" style="fill: none; stroke: black;"></line><line transform="translate(476.6871165644172,306.3830141192308)" x2="0" y2="-3.986448076923068" style="fill: none; stroke: black;"></line><line transform="translate(485.2760736196319,323.9616623884615)" x2="0" y2="-1.5030319230768328" style="fill: none; stroke: black;"></line><line transform="translate(493.8650306748466,323.7655673884615)" x2="0" y2="-1.8367696153845827" style="fill: none; stroke: black;"></line><line transform="translate(502.4539877300613,321.3448781576923)" x2="0" y2="-0.40927846153846303" style="fill: none; stroke: black;"></line><line transform="translate(511.04294478527606,241.11653335)" x2="0" y2="-121.23847230769229" style="fill: none; stroke: black;"></line><line transform="translate(519.6319018404907,254.6328904653846)" x2="0" y2="-0.5000913461538516" style="fill: none; stroke: black;"></line><line transform="translate(528.2208588957055,250.6654564269231)" x2="0" y2="-45.57958326923077" style="fill: none; stroke: black;"></line><line transform="translate(536.8098159509202,254.80373527307694)" x2="0" y2="-1.7177594230769557" style="fill: none; stroke: black;"></line><line transform="translate(545.398773006135,233.7935423884615)" x2="0" y2="-23.280339038461477" style="fill: none; stroke: black;"></line><line transform="translate(553.9877300613497,258.95715835)" x2="0" y2="-0.8246023076923166" style="fill: none; stroke: black;"></line><line transform="translate(562.5766871165644,272.9086768115385)" x2="0" y2="-0.40101269230774506" style="fill: none; stroke: black;"></line><line transform="translate(571.1656441717791,250.4794606576923)" x2="0" y2="-3.0992126923077024" style="fill: none; stroke: black;"></line><line transform="translate(579.7546012269938,251.53318758076924)" x2="0" y2="-6.5244582692307915" style="fill: none; stroke: black;"></line><line transform="translate(588.3435582822086,254.14850046538461)" x2="0" y2="-0.19645653846151845" style="fill: none; stroke: black;"></line><line transform="translate(596.9325153374233,205.03660777307692)" x2="0" y2="-7.673675961538436" style="fill: none; stroke: black;"></line><line transform="translate(605.521472392638,206.10475623461537)" x2="0" y2="-4.228755961538468" style="fill: none; stroke: black;"></line><line transform="translate(614.1104294478528,203.5058585423077)" x2="0" y2="-4.724950192307745" style="fill: none; stroke: black;"></line><line transform="translate(622.6993865030674,202.47885719615385)" x2="0" y2="-1.0536569230769146" style="fill: none; stroke: black;"></line><line transform="translate(631.2883435582822,206.36451431153841)" x2="0" y2="-7.745414423076909" style="fill: none; stroke: black;"></line><line transform="translate(639.8773006134969,206.79195315769232)" x2="0" y2="-2.8823050000000308" style="fill: none; stroke: black;"></line><line transform="translate(648.4662576687116,205.53410527307693)" x2="0" y2="-0.458647692307693" style="fill: none; stroke: black;"></line><line transform="translate(657.0552147239264,204.70650642692306)" x2="0" y2="-0.4097792307692316" style="fill: none; stroke: black;"></line><line transform="translate(665.6441717791411,203.7183302730769)" x2="0" y2="-0.730633076923084" style="fill: none; stroke: black;"></line><line transform="translate(674.2331288343559,204.36120719615388)" x2="0" y2="-1.8843440384615633" style="fill: none; stroke: black;"></line><line transform="translate(682.8220858895705,206.8355875807692)" x2="0" y2="-29.12069365384616" style="fill: none; stroke: black;"></line><line transform="translate(691.4110429447852,198.78968719615386)" x2="0" y2="-7.859787115384677" style="fill: none; stroke: black;"></line><line transform="translate(700,197.71697431153848)" x2="0" y2="-1.9410061538462173" style="fill: none; stroke: black;"></line><line transform="translate(708.5889570552147,170.78106142692315)" x2="0" y2="-8.941571730769283" style="fill: none; stroke: black;"></line><line transform="translate(717.1779141104295,193.41270258076918)" x2="0" y2="-8.950133461538428" style="fill: none; stroke: black;"></line><line transform="translate(725.7668711656441,228.6116550807692)" x2="0" y2="-0.1339330769230287" style="fill: none; stroke: black;"></line><line transform="translate(734.3558282208589,255.18244969615384)" x2="0" y2="-7.020818269230745" style="fill: none; stroke: black;"></line><line transform="translate(742.9447852760736,253.24994681153845)" x2="0" y2="-0.7680559615384368" style="fill: none; stroke: black;"></line><line transform="translate(751.5337423312883,265.1599866192307)" x2="0" y2="-5.114176153846074" style="fill: none; stroke: black;"></line><line transform="translate(760.1226993865031,257.02630008076926)" x2="0" y2="-6.342325961538478" style="fill: none; stroke: black;"></line><line transform="translate(768.7116564417178,270.31460392692304)" x2="0" y2="-1.4345749999999953" style="fill: none; stroke: black;"></line><line transform="translate(777.3006134969326,269.51181008076924)" x2="0" y2="-16.40381730769232" style="fill: none; stroke: black;"></line><line transform="translate(785.8895705521472,250.22744642692308)" x2="0" y2="-0.7912634615384775" style="fill: none; stroke: black;"></line><line transform="translate(794.4785276073619,271.38160681153846)" x2="0" y2="-5.06178749999998" style="fill: none; stroke: black;"></line><line transform="translate(803.0674846625767,218.65670835000003)" x2="0" y2="-9.429828846153839" style="fill: none; stroke: black;"></line><line transform="translate(811.6564417177914,217.4742818115385)" x2="0" y2="-7.883549230769233" style="fill: none; stroke: black;"></line><line transform="translate(820.2453987730062,200.69742950384614)" x2="0" y2="-2.730383653846161" style="fill: none; stroke: black;"></line><line transform="translate(828.8343558282209,271.88571892692306)" x2="0" y2="-0.3234923076923337" style="fill: none; stroke: black;"></line><line transform="translate(837.4233128834355,274.4945616192308)" x2="0" y2="-2.050810192307722" style="fill: none; stroke: black;"></line><line transform="translate(846.0122699386503,269.68017950384615)" x2="0" y2="-3.7367378846153656" style="fill: none; stroke: black;"></line><line transform="translate(854.601226993865,265.31886681153844)" x2="0" y2="-4.912981923076927" style="fill: none; stroke: black;"></line><line transform="translate(863.1901840490798,247.9927731576923)" x2="0" y2="-10.205792307692292" style="fill: none; stroke: black;"></line><line transform="translate(871.7791411042945,278.0051479653846)" x2="0" y2="-0.3718609615384594" style="fill: none; stroke: black;"></line><line transform="translate(880.3680981595091,260.37592988846154)" x2="0" y2="-13.566212692307687" style="fill: none; stroke: black;"></line><line transform="translate(888.9570552147239,256.53952969615386)" x2="0" y2="-12.177258269230805" style="fill: none; stroke: black;"></line><line transform="translate(897.5460122699386,253.62872719615387)" x2="0" y2="-9.390685000000076" style="fill: none; stroke: black;"></line><line transform="translate(906.1349693251534,252.5588518115385)" x2="0" y2="-19.74245807692313" style="fill: none; stroke: black;"></line><line transform="translate(914.7239263803681,227.28186238846155)" x2="0" y2="-7.372982307692325" style="fill: none; stroke: black;"></line><line transform="translate(923.3128834355828,245.43545431153845)" x2="0" y2="-13.911184038461528" style="fill: none; stroke: black;"></line><line transform="translate(931.9018404907976,253.01473758076924)" x2="0" y2="-19.11539826923081" style="fill: none; stroke: black;"></line><line transform="translate(940.4907975460122,254.66835738846154)" x2="0" y2="-12.4319286538462" style="fill: none; stroke: black;"></line><line transform="translate(949.079754601227,202.63957719615382)" x2="0" y2="-50.09742057692307" style="fill: none; stroke: black;"></line><line transform="translate(957.6687116564417,209.1438762346154)" x2="0" y2="-7.955679807692377" style="fill: none; stroke: black;"></line><line transform="translate(966.2576687116565,213.30849758076926)" x2="0" y2="-0.739102307692292" style="fill: none; stroke: black;"></line><line transform="translate(974.8466257668712,223.34867911923078)" x2="0" y2="-13.943432692307681" style="fill: none; stroke: black;"></line><line transform="translate(983.4355828220858,207.3898346961538)" x2="0" y2="-13.333930384615314" style="fill: none; stroke: black;"></line><line transform="translate(992.0245398773006,224.20462642692308)" x2="0" y2="-1.1144300000000271" style="fill: none; stroke: black;"></line><line transform="translate(1000.6134969325153,226.90362065769233)" x2="0" y2="-2.697147500000085" style="fill: none; stroke: black;"></line><line transform="translate(1009.2024539877301,207.26453354230773)" x2="0" y2="-13.723178846153871" style="fill: none; stroke: black;"></line><line transform="translate(1017.7914110429448,208.1061135423077)" x2="0" y2="-0.8282030769231028" style="fill: none; stroke: black;"></line><line transform="translate(1026.3803680981596,208.39385700384616)" x2="0" y2="-2.466058846153885" style="fill: none; stroke: black;"></line><line transform="translate(1034.9693251533743,211.65495719615387)" x2="0" y2="-1.785772884615426" style="fill: none; stroke: black;"></line><line transform="translate(1043.5582822085892,212.71867777307688)" x2="0" y2="-10.861101730769178" style="fill: none; stroke: black;"></line><line transform="translate(1052.1472392638038,199.8467631576923)" x2="0" y2="-2.0317580769230403" style="fill: none; stroke: black;"></line><line transform="translate(1060.7361963190185,195.65099161923075)" x2="0" y2="-1.5345157692307794" style="fill: none; stroke: black;"></line><line transform="translate(1069.3251533742332,187.34336354230766)" x2="0" y2="-1.8429657692307728" style="fill: none; stroke: black;"></line><line transform="translate(1077.9141104294479,182.28130623461544)" x2="0" y2="-8.119097500000066" style="fill: none; stroke: black;"></line><line transform="translate(1086.5030674846628,188.01132258076922)" x2="0" y2="-0.6507844230769138" style="fill: none; stroke: black;"></line><line transform="translate(1095.0920245398775,179.00634873461541)" x2="0" y2="-55.02091134615392" style="fill: none; stroke: black;"></line><line transform="translate(1103.6809815950921,194.64066488846157)" x2="0" y2="-6.423408076923124" style="fill: none; stroke: black;"></line><line transform="translate(1112.2699386503068,199.67676565769233)" x2="0" y2="-0.8175617307692278" style="fill: none; stroke: black;"></line><line transform="translate(1120.8588957055215,200.96147931153848)" x2="0" y2="-0.7426415384616121" style="fill: none; stroke: black;"></line><line transform="translate(1129.4478527607364,201.67600931153845)" x2="0" y2="-5.861564615384623" style="fill: none; stroke: black;"></line><line transform="translate(1138.036809815951,182.74368335000003)" x2="0" y2="-1.2141836538461916" style="fill: none; stroke: black;"></line><line transform="translate(1146.6257668711658,191.3899881576923)" x2="0" y2="-28.2837144230769" style="fill: none; stroke: black;"></line><line transform="translate(1155.2147239263804,174.24000469615385)" x2="0" y2="-29.000287884615375" style="fill: none; stroke: black;"></line><line transform="translate(1163.803680981595,199.54407008076925)" x2="0" y2="-5.8420505769231" style="fill: none; stroke: black;"></line><line transform="translate(1172.39263803681,200.5403062346154)" x2="0" y2="-0.6771255769230606" style="fill: none; stroke: black;"></line><line transform="translate(1180.9815950920247,207.33397046538465)" x2="0" y2="-4.207644807692361" style="fill: none; stroke: black;"></line><line transform="translate(1189.5705521472394,205.45863508076923)" x2="0" y2="-7.141045192307672" style="fill: none; stroke: black;"></line><line transform="translate(1198.159509202454,239.20289585)" x2="0" y2="-1.038715192307734" style="fill: none; stroke: black;"></line><line transform="translate(1206.7484662576687,297.69647719615386)" x2="0" y2="-4.706808269230805" style="fill: none; stroke: black;"></line><line transform="translate(1215.3374233128836,294.5492162346154)" x2="0" y2="-0.6659207692307518" style="fill: none; stroke: black;"></line><line transform="translate(1223.9263803680983,292.21868642692306)" x2="0" y2="-0.6535486538461441" style="fill: none; stroke: black;"></line><line transform="translate(1232.515337423313,291.66085585)" x2="0" y2="-6.587566346153892" style="fill: none; stroke: black;"></line><line transform="translate(1241.1042944785277,290.98610335)" x2="0" y2="-2.015638461538458" style="fill: none; stroke: black;"></line><line transform="translate(1249.6932515337423,297.9331902730769)" x2="0" y2="-0.31914999999992233" style="fill: none; stroke: black;"></line><line transform="translate(1258.2822085889572,295.61277815769233)" x2="0" y2="-0.49084442307696463" style="fill: none; stroke: black;"></line><line transform="translate(1266.871165644172,287.3348306576923)" x2="0" y2="-6.618180769230719" style="fill: none; stroke: black;"></line><line transform="translate(1275.4601226993866,291.8864727730769)" x2="0" y2="-0.5723851923076495" style="fill: none; stroke: black;"></line><line transform="translate(1284.0490797546013,297.26833411923076)" x2="0" y2="-2.2859230769230408" style="fill: none; stroke: black;"></line><line transform="translate(1292.638036809816,297.4383998884615)" x2="0" y2="-0.5549788461538014" style="fill: none; stroke: black;"></line><line transform="translate(1301.2269938650309,293.52686796538467)" x2="0" y2="-8.878050384615449" style="fill: none; stroke: black;"></line><line transform="translate(1309.8159509202455,296.16442392692306)" x2="0" y2="-3.402958653846156" style="fill: none; stroke: black;"></line><line transform="translate(1318.4049079754602,299.71056584999997)" x2="0" y2="-0.7925515384614528" style="fill: none; stroke: black;"></line><line transform="translate(1326.993865030675,301.2530752730769)" x2="0" y2="-3.954134999999951" style="fill: none; stroke: black;"></line><line transform="translate(1335.5828220858896,302.4593998884615)" x2="0" y2="-13.579895961538398" style="fill: none; stroke: black;"></line><line transform="translate(1344.1717791411045,296.81377681153845)" x2="0" y2="-30.141031538461505" style="fill: none; stroke: black;"></line><line transform="translate(1352.7607361963192,301.4202429653846)" x2="0" y2="-0.5868036538461752" style="fill: none; stroke: black;"></line><line transform="translate(1361.3496932515338,296.4700031576923)" x2="0" y2="-0.8835744230768796" style="fill: none; stroke: black;"></line><line transform="translate(1369.9386503067485,295.2739231576923)" x2="0" y2="-0.020097115384658082" style="fill: none; stroke: black;"></line><line transform="translate(1378.5276073619632,291.84410469615386)" x2="0" y2="-5.266237307692336" style="fill: none; stroke: black;"></line><line transform="translate(1387.116564417178,293.0935120038462)" x2="0" y2="-8.736545000000035" style="fill: none; stroke: black;"></line><line transform="translate(1395.7055214723928,296.39198373461534)" x2="0" y2="-4.696116153846106" style="fill: none; stroke: black;"></line></g><g class="mark-rect role-mark layer_2_marks"><path d="M1.794478527607362,498.9552262346154h5v0.2501505769230903h-5Z" style="fill: #4c78a8;"></path><path d="M10.383435582822086,499.1511312346154h5v0.016392692307704237h-5Z" style="fill: #4c78a8;"></path><path d="M18.97239263803681,235.29795873461535h5v4.155011730769274h-5Z" style="fill: #4c78a8;"></path><path d="M27.561349693251536,246.1823225807692h5v5.1840409615385h-5Z" style="fill: #4c78a8;"></path><path d="M36.15030674846626,489.93789161923075h5v0.35741980769233805h-5Z" style="fill: #4c78a8;"></path><path d="M44.73926380368098,248.10687104230772h5v3.0896559615384263h-5Z" style="fill: #4c78a8;"></path><path d="M53.328220858895705,242.6902589269231h5v3.088341346153811h-5Z" style="fill: #4c78a8;"></path><path d="M61.91717791411044,241.81800931153845h5v4.9617315384615495h-5Z" style="fill: #4c78a8;"></path><path d="M70.50613496932516,269.62372161923076h5v0.7637467307692418h-5Z" style="fill: #4c78a8;"></path><path d="M79.09509202453988,325.3494829653846h5v0.7379171153846187h-5Z" style="fill: #4c78a8;"></path><path d="M87.6840490797546,325.7467287346154h5v3.200187500000027h-5Z" style="fill: #4c78a8;"></path><path d="M96.27300613496934,319.32327911923073h5v1.5530811538461649h-5Z" style="fill: #4c78a8;"></path><path d="M104.86196319018406,317.3073781576923h5v14.447331730769235h-5Z" style="fill: #4c78a8;"></path><path d="M113.45092024539878,329.8345279653846h5v3.3152513461538433h-5Z" style="fill: #4c78a8;"></path><path d="M122.03987730061351,276.43475335h5v5.093964038461536h-5Z" style="fill: #4c78a8;"></path><path d="M130.62883435582822,278.82525508076924h5v3.8789663461537884h-5Z" style="fill: #4c78a8;"></path><path d="M139.21779141104295,224.0338623884615h5v43.11560711538465h-5Z" style="fill: #4c78a8;"></path><path d="M147.8067484662577,240.56588411923082h5v20.138430576923042h-5Z" style="fill: #4c78a8;"></path><path d="M156.3957055214724,256.2217910423077h5v8.213471538461476h-5Z" style="fill: #4c78a8;"></path><path d="M164.98466257668713,257.15724392692306h5v8.63378826923082h-5Z" style="fill: #4c78a8;"></path><path d="M173.57361963190183,235.27289315769235h5v18.130769230769204h-5Z" style="fill: #4c78a8;"></path><path d="M182.16257668711657,254.89387546538464h5v4.510390576923072h-5Z" style="fill: #4c78a8;"></path><path d="M190.7515337423313,213.6697793115385h5v18.758708653846156h-5Z" style="fill: #4c78a8;"></path><path d="M199.340490797546,236.22095277307693h5v18.108441538461534h-5Z" style="fill: #4c78a8;"></path><path d="M207.92944785276075,255.18546104230768h5v2.7279692307691903h-5Z" style="fill: #4c78a8;"></path><path d="M216.51840490797548,258.96720392692305h5v5.154475769230771h-5Z" style="fill: #4c78a8;"></path><path d="M225.1073619631902,189.3325927730769h5v3.9821096153846156h-5Z" style="fill: #4c78a8;"></path><path d="M233.69631901840492,182.1527996961538h5v8.056203846153892h-5Z" style="fill: #4c78a8;"></path><path d="M242.28527607361966,188.81447334999996h5v0.24547500000005584h-5Z" style="fill: #4c78a8;"></path><path d="M250.87423312883436,185.9673175807692h5v1.851024615384631h-5Z" style="fill: #4c78a8;"></path><path d="M259.46319018404904,185.2920548884615h5v5.175886730769264h-5Z" style="fill: #4c78a8;"></path><path d="M268.0521472392638,244.98709585h5v1.8420925000000068h-5Z" style="fill: #4c78a8;"></path><path d="M276.6411042944785,241.72876911923072h5v6.330889038461606h-5Z" style="fill: #4c78a8;"></path><path d="M285.23006134969324,245.47265969615384h5v3.062242499999968h-5Z" style="fill: #4c78a8;"></path><path d="M293.819018404908,246.75372488846153h5v7.552101346153847h-5Z" style="fill: #4c78a8;"></path><path d="M302.40797546012266,242.45684681153847h5v4.5879048076923254h-5Z" style="fill: #4c78a8;"></path><path d="M310.9969325153374,244.33107104230766h5v3.5899724999999876h-5Z" style="fill: #4c78a8;"></path><path d="M319.5858895705521,237.28028008076922h5v20.304801730769213h-5Z" style="fill: #4c78a8;"></path><path d="M328.17484662576686,229.37689738846154h5v23.744866153846147h-5Z" style="fill: #4c78a8;"></path><path d="M336.7638036809816,256.10065431153845h5v8.05322000000001h-5Z" style="fill: #4c78a8;"></path><path d="M345.3527607361963,239.2767156576923h5v19.715962499999932h-5Z" style="fill: #4c78a8;"></path><path d="M353.941717791411,254.84266988846153h5v3.8581851923076727h-5Z" style="fill: #4c78a8;"></path><path d="M362.53067484662574,253.4956548884615h5v11.93371153846158h-5Z" style="fill: #4c78a8;"></path><path d="M371.1196319018405,260.8550106576923h5v7.346051923076914h-5Z" style="fill: #4c78a8;"></path><path d="M379.7085889570552,266.21718604230773h5v2.0280157692307057h-5Z" style="fill: #4c78a8;"></path><path d="M388.29754601226995,243.34757296538464h5v23.816552884615362h-5Z" style="fill: #4c78a8;"></path><path d="M396.8865030674846,266.7597841192308h5v0.3029390384614885h-5Z" style="fill: #4c78a8;"></path><path d="M405.47546012269936,262.83821123461536h5v3.440521923076915h-5Z" style="fill: #4c78a8;"></path><path d="M414.0644171779141,246.6670529653846h5v8.627950000000027h-5Z" style="fill: #4c78a8;"></path><path d="M422.65337423312883,253.63910661923077h5v3.452592692307718h-5Z" style="fill: #4c78a8;"></path><path d="M431.24233128834356,244.08162585h5v9.00564749999998h-5Z" style="fill: #4c78a8;"></path><path d="M439.83128834355824,252.58101969615385h5v4.658865961538453h-5Z" style="fill: #4c78a8;"></path><path d="M448.420245398773,233.47241469615386h5v0.6459623076923435h-5Z" style="fill: #4c78a8;"></path><path d="M457.0092024539877,219.96349642692303h5v4.689025576923086h-5Z" style="fill: #4c78a8;"></path><path d="M465.59815950920245,239.58534334999996h5v10.644964230769261h-5Z" style="fill: #4c78a8;"></path><path d="M474.1871165644172,306.3830141192308h5v16.67546942307689h-5Z" style="fill: #4c78a8;"></path><path d="M482.7760736196319,323.9616623884615h5v0.9069380769230975h-5Z" style="fill: #4c78a8;"></path><path d="M491.3650306748466,323.7655673884615h5v1.3383553846154541h-5Z" style="fill: #4c78a8;"></path><path d="M499.9539877300613,321.3448781576923h5v0.2815721153846198h-5Z" style="fill: #4c78a8;"></path><path d="M508.54294478527606,241.11653335h5v25.00041076923077h-5Z" style="fill: #4c78a8;"></path><path d="M517.1319018404907,254.6328904653846h5v5.03462807692307h-5Z" style="fill: #4c78a8;"></path><path d="M525.7208588957055,250.6654564269231h5v13.367520769230765h-5Z" style="fill: #4c78a8;"></path><path d="M534.3098159509202,254.80373527307694h5v13.954146730769196h-5Z" style="fill: #4c78a8;"></path><path d="M542.898773006135,233.7935423884615h5v21.6196986538462h-5Z" style="fill: #4c78a8;"></path><path d="M551.4877300613497,258.95715835h5v8.92798269230775h-5Z" style="fill: #4c78a8;"></path><path d="M560.0766871165644,272.9086768115385h5v3.1504428846153587h-5Z" style="fill: #4c78a8;"></path><path d="M568.6656441717791,250.4794606576923h5v2.8545594230769495h-5Z" style="fill: #4c78a8;"></path><path d="M577.2546012269938,251.53318758076924h5v1.4377853846153528h-5Z" style="fill: #4c78a8;"></path><path d="M585.8435582822086,254.14850046538461h5v1.704447307692277h-5Z" style="fill: #4c78a8;"></path><path d="M594.4325153374233,205.03660777307692h5v2.216117115384577h-5Z" style="fill: #4c78a8;"></path><path d="M603.021472392638,206.10475623461537h5v0.5903873076923105h-5Z" style="fill: #4c78a8;"></path><path d="M611.6104294478528,203.5058585423077h5v4.401419038461597h-5Z" style="fill: #4c78a8;"></path><path d="M620.1993865030674,202.47885719615385h5v2.895920192307699h-5Z" style="fill: #4c78a8;"></path><path d="M628.7883435582822,206.36451431153841h5v1.2210748076923323h-5Z" style="fill: #4c78a8;"></path><path d="M637.3773006134969,206.79195315769232h5v0.6784286538460833h-5Z" style="fill: #4c78a8;"></path><path d="M645.9662576687116,205.53410527307693h5v1.2044457692308015h-5Z" style="fill: #4c78a8;"></path><path d="M654.5552147239264,204.70650642692306h5v1.7490042307692306h-5Z" style="fill: #4c78a8;"></path><path d="M663.1441717791411,203.7183302730769h5v2.4792755769231007h-5Z" style="fill: #4c78a8;"></path><path d="M671.7331288343559,204.36120719615388h5v1.9059617307691497h-5Z" style="fill: #4c78a8;"></path><path d="M680.3220858895705,206.8355875807692h5v0.8685565384615757h-5Z" style="fill: #4c78a8;"></path><path d="M688.9110429447852,198.78968719615386h5v3.919231923076836h-5Z" style="fill: #4c78a8;"></path><path d="M697.5,197.71697431153848h5v3.459488076923037h-5Z" style="fill: #4c78a8;"></path><path d="M706.0889570552147,170.78106142692315h5v23.177406346153816h-5Z" style="fill: #4c78a8;"></path><path d="M714.6779141104295,193.41270258076918h5v7.1072873076923315h-5Z" style="fill: #4c78a8;"></path><path d="M723.2668711656441,228.6116550807692h5v7.423865961538468h-5Z" style="fill: #4c78a8;"></path><path d="M731.8558282208589,255.18244969615384h5v2.1809075000000178h-5Z" style="fill: #4c78a8;"></path><path d="M740.4447852760736,253.24994681153845h5v3.6927484615384287h-5Z" style="fill: #4c78a8;"></path><path d="M749.0337423312883,265.1599866192307h5v0.7728261538462107h-5Z" style="fill: #4c78a8;"></path><path d="M757.6226993865031,257.02630008076926h5v12.845358846153829h-5Z" style="fill: #4c78a8;"></path><path d="M766.2116564417178,270.31460392692304h5v5.070330000000013h-5Z" style="fill: #4c78a8;"></path><path d="M774.8006134969326,269.51181008076924h5v2.7243274999999585h-5Z" style="fill: #4c78a8;"></path><path d="M783.3895705521472,250.22744642692308h5v19.880496923076947h-5Z" style="fill: #4c78a8;"></path><path d="M791.9785276073619,271.38160681153846h5v2.9214198076923026h-5Z" style="fill: #4c78a8;"></path><path d="M800.5674846625767,218.65670835000003h5v2.240132692307668h-5Z" style="fill: #4c78a8;"></path><path d="M809.1564417177914,217.4742818115385h5v1.0494678846153533h-5Z" style="fill: #4c78a8;"></path><path d="M817.7453987730062,200.69742950384614h5v12.553654807692283h-5Z" style="fill: #4c78a8;"></path><path d="M826.3343558282209,271.88571892692306h5v3.2952621153846167h-5Z" style="fill: #4c78a8;"></path><path d="M834.9233128834355,274.4945616192308h5v2.093226538461522h-5Z" style="fill: #4c78a8;"></path><path d="M843.5122699386503,269.68017950384615h5v3.2707182692307697h-5Z" style="fill: #4c78a8;"></path><path d="M852.101226993865,265.31886681153844h5v6.6105175000000145h-5Z" style="fill: #4c78a8;"></path><path d="M860.6901840490798,247.9927731576923h5v13.454440769230729h-5Z" style="fill: #4c78a8;"></path><path d="M869.2791411042945,278.0051479653846h5v1.868875192307712h-5Z" style="fill: #4c78a8;"></path><path d="M877.8680981595091,260.37592988846154h5v12.100778653846135h-5Z" style="fill: #4c78a8;"></path><path d="M886.4570552147239,256.53952969615386h5v10.972962692307647h-5Z" style="fill: #4c78a8;"></path><path d="M895.0460122699386,253.62872719615387h5v9.685843461538411h-5Z" style="fill: #4c78a8;"></path><path d="M903.6349693251534,252.5588518115385h5v10.898620384615356h-5Z" style="fill: #4c78a8;"></path><path d="M912.2239263803681,227.28186238846155h5v32.105619615384626h-5Z" style="fill: #4c78a8;"></path><path d="M920.8128834355828,245.43545431153845h5v15.996545576923069h-5Z" style="fill: #4c78a8;"></path><path d="M929.4018404907976,253.01473758076924h5v2.963666730769205h-5Z" style="fill: #4c78a8;"></path><path d="M937.9907975460122,254.66835738846154h5v8.304276346153841h-5Z" style="fill: #4c78a8;"></path><path d="M946.579754601227,202.63957719615382h5v21.023344423076992h-5Z" style="fill: #4c78a8;"></path><path d="M955.1687116564417,209.1438762346154h5v10.02780442307693h-5Z" style="fill: #4c78a8;"></path><path d="M963.7576687116565,213.30849758076926h5v7.28364461538456h-5Z" style="fill: #4c78a8;"></path><path d="M972.3466257668712,223.34867911923078h5v2.4971607692307316h-5Z" style="fill: #4c78a8;"></path><path d="M980.9355828220858,207.3898346961538h5v1.9424203846153887h-5Z" style="fill: #4c78a8;"></path><path d="M989.5245398773006,224.20462642692308h5v2.7097596153845984h-5Z" style="fill: #4c78a8;"></path><path d="M998.1134969325153,226.90362065769233h5v1.5417876923076506h-5Z" style="fill: #4c78a8;"></path><path d="M1006.7024539877301,207.26453354230773h5v10.642350769230688h-5Z" style="fill: #4c78a8;"></path><path d="M1015.2914110429448,208.1061135423077h5v7.477212500000007h-5Z" style="fill: #4c78a8;"></path><path d="M1023.8803680981596,208.39385700384616h5v1.2501136538461992h-5Z" style="fill: #4c78a8;"></path><path d="M1032.4693251533743,211.65495719615387h5v3.03446192307689h-5Z" style="fill: #4c78a8;"></path><path d="M1041.0582822085892,212.71867777307688h5v4.119725000000017h-5Z" style="fill: #4c78a8;"></path><path d="M1049.6472392638038,199.8467631576923h5v4.333718846153829h-5Z" style="fill: #4c78a8;"></path><path d="M1058.2361963190185,195.65099161923075h5v8.600357692307682h-5Z" style="fill: #4c78a8;"></path><path d="M1066.8251533742332,187.34336354230766h5v6.222286346153851h-5Z" style="fill: #4c78a8;"></path><path d="M1075.4141104294479,182.28130623461544h5v12.429531923076865h-5Z" style="fill: #4c78a8;"></path><path d="M1084.0030674846628,188.01132258076922h5v10.872699615384647h-5Z" style="fill: #4c78a8;"></path><path d="M1092.5920245398775,179.00634873461541h5v7.040586538461525h-5Z" style="fill: #4c78a8;"></path><path d="M1101.1809815950921,194.64066488846157h5v1.6413292307692018h-5Z" style="fill: #4c78a8;"></path><path d="M1109.7699386503068,199.67676565769233h5v0.6054296153845371h-5Z" style="fill: #4c78a8;"></path><path d="M1118.3588957055215,200.96147931153848h5v4.062283846153775h-5Z" style="fill: #4c78a8;"></path><path d="M1126.9478527607364,201.67600931153845h5v3.006188461538443h-5Z" style="fill: #4c78a8;"></path><path d="M1135.536809815951,182.74368335000003h5v20.363363846153845h-5Z" style="fill: #4c78a8;"></path><path d="M1144.1257668711658,191.3899881576923h5v13.946157692307679h-5Z" style="fill: #4c78a8;"></path><path d="M1152.7147239263804,174.24000469615385h5v29.22998653846156h-5Z" style="fill: #4c78a8;"></path><path d="M1161.303680981595,199.54407008076925h5v2.2428990384615304h-5Z" style="fill: #4c78a8;"></path><path d="M1169.89263803681,200.5403062346154h5v6.452354230769174h-5Z" style="fill: #4c78a8;"></path><path d="M1178.4815950920247,207.33397046538465h5v1.7688998076922644h-5Z" style="fill: #4c78a8;"></path><path d="M1187.0705521472394,205.45863508076923h5v2.809280384615363h-5Z" style="fill: #4c78a8;"></path><path d="M1195.659509202454,239.20289585h5v11.253532307692268h-5Z" style="fill: #4c78a8;"></path><path d="M1204.2484662576687,297.69647719615386h5v3.460117499999967h-5Z" style="fill: #4c78a8;"></path><path d="M1212.8374233128836,294.5492162346154h5v6.703198076923059h-5Z" style="fill: #4c78a8;"></path><path d="M1221.4263803680983,292.21868642692306h5v4.723900384615433h-5Z" style="fill: #4c78a8;"></path><path d="M1230.015337423313,291.66085585h5v7.752448846153868h-5Z" style="fill: #4c78a8;"></path><path d="M1238.6042944785277,290.98610335h5v2.9198417307692353h-5Z" style="fill: #4c78a8;"></path><path d="M1247.1932515337423,297.9331902730769h5v2.2643686538461907h-5Z" style="fill: #4c78a8;"></path><path d="M1255.7822085889572,295.61277815769233h5v1.8190248076922444h-5Z" style="fill: #4c78a8;"></path><path d="M1264.371165644172,287.3348306576923h5v9.610194423076962h-5Z" style="fill: #4c78a8;"></path><path d="M1272.9601226993866,291.8864727730769h5v6.214016538461578h-5Z" style="fill: #4c78a8;"></path><path d="M1281.5490797546013,297.26833411923076h5v2.9174938461538886h-5Z" style="fill: #4c78a8;"></path><path d="M1290.138036809816,297.4383998884615h5v3.313659423076956h-5Z" style="fill: #4c78a8;"></path><path d="M1298.7269938650309,293.52686796538467h5v6.962305769230738h-5Z" style="fill: #4c78a8;"></path><path d="M1307.3159509202455,296.16442392692306h5v2.8723375000000146h-5Z" style="fill: #4c78a8;"></path><path d="M1315.9049079754602,299.71056584999997h5v0.9025786538462057h-5Z" style="fill: #4c78a8;"></path><path d="M1324.493865030675,301.2530752730769h5v2.5693155769231453h-5Z" style="fill: #4c78a8;"></path><path d="M1333.0828220858896,302.4593998884615h5v0.6366969230768973h-5Z" style="fill: #4c78a8;"></path><path d="M1341.6717791411045,296.81377681153845h5v4.87210846153846h-5Z" style="fill: #4c78a8;"></path><path d="M1350.2607361963192,301.4202429653846h5v3.0614484615384754h-5Z" style="fill: #4c78a8;"></path><path d="M1358.8496932515338,296.4700031576923h5v5.5149240384615155h-5Z" style="fill: #4c78a8;"></path><path d="M1367.4386503067485,295.2739231576923h5v3.420353846153887h-5Z" style="fill: #4c78a8;"></path><path d="M1376.0276073619632,291.84410469615386h5v7.226945769230724h-5Z" style="fill: #4c78a8;"></path><path d="M1384.616564417178,293.0935120038462h5v5.256130576923056h-5Z" style="fill: #4c78a8;"></path><path d="M1393.2055214723928,296.39198373461534h5v2.299614038461584h-5Z" style="fill: #4c78a8;"></path></g><g class="mark-rect role-mark layer_3_marks"><path d="M1.794478527607362,498.66396258076924h5v1h-5Z" style="fill: white; opacity: 0.7;"></path><path d="M10.383435582822086,498.6575806576923h5v1h-5Z" style="fill: white; opacity: 0.7;"></path><path d="M18.97239263803681,236.7201210423077h5v1h-5Z" style="fill: white; opacity: 0.7;"></path><path d="M27.561349693251536,247.95139335h5v1h-5Z" style="fill: white; opacity: 0.7;"></path><path d="M36.15030674846626,489.63538508076925h5v1h-5Z" style="fill: white; opacity: 0.7;"></path><path d="M44.73926380368098,250.3800077730769h5v1h-5Z" style="fill: white; opacity: 0.7;"></path><path d="M53.328220858895705,242.8488410423077h5v1h-5Z" style="fill: white; opacity: 0.7;"></path><path d="M61.91717791411044,245.87226661923074h5v1h-5Z" style="fill: white; opacity: 0.7;"></path><path d="M70.50613496932516,269.50375277307694h5v1h-5Z" style="fill: white; opacity: 0.7;"></path><path d="M79.09509202453988,325.18609161923075h5v1h-5Z" style="fill: white; opacity: 0.7;"></path><path d="M87.6840490797546,325.4931823884615h5v1h-5Z" style="fill: white; opacity: 0.7;"></path><path d="M96.27300613496934,319.46679200384614h5v1h-5Z" style="fill: white; opacity: 0.7;"></path><path d="M104.86196319018406,321.06206084999997h5v1h-5Z" style="fill: white; opacity: 0.7;"></path><path d="M113.45092024539878,331.9123504653846h5v1h-5Z" style="fill: white; opacity: 0.7;"></path><path d="M122.03987730061351,280.91384681153846h5v1h-5Z" style="fill: white; opacity: 0.7;"></path><path d="M130.62883435582822,279.60622508076926h5v1h-5Z" style="fill: white; opacity: 0.7;"></path><path d="M139.21779141104295,261.4248881576923h5v1h-5Z" style="fill: white; opacity: 0.7;"></path><path d="M147.8067484662577,246.8526873884615h5v1h-5Z" style="fill: white; opacity: 0.7;"></path><path d="M156.3957055214724,259.61229508076923h5v1h-5Z" style="fill: white; opacity: 0.7;"></path><path d="M164.98466257668713,262.3751231576923h5v1h-5Z" style="fill: white; opacity: 0.7;"></path><path d="M173.57361963190183,250.33986181153844h5v1h-5Z" style="fill: white; opacity: 0.7;"></path><path d="M182.16257668711657,255.17227796538464h5v1h-5Z" style="fill: white; opacity: 0.7;"></path><path d="M190.7515337423313,225.9768375807692h5v1h-5Z" style="fill: white; opacity: 0.7;"></path><path d="M199.340490797546,244.29041142692304h5v1h-5Z" style="fill: white; opacity: 0.7;"></path><path d="M207.92944785276075,255.32479834999998h5v1h-5Z" style="fill: white; opacity: 0.7;"></path><path d="M216.51840490797548,261.30548161923076h5v1h-5Z" style="fill: white; opacity: 0.7;"></path><path d="M225.1073619631902,189.38084065769226h5v1h-5Z" style="fill: white; opacity: 0.7;"></path><path d="M233.69631901840492,187.53882508076924h5v1h-5Z" style="fill: white; opacity: 0.7;"></path><path d="M242.28527607361966,188.4279679653846h5v1h-5Z" style="fill: white; opacity: 0.7;"></path><path d="M250.87423312883436,186.13884546538463h5v1h-5Z" style="fill: white; opacity: 0.7;"></path><path d="M259.46319018404904,186.31961546538463h5v1h-5Z" style="fill: white; opacity: 0.7;"></path><path d="M268.0521472392638,245.24390258076923h5v1h-5Z" style="fill: white; opacity: 0.7;"></path><path d="M276.6411042944785,243.35818315769234h5v1h-5Z" style="fill: white; opacity: 0.7;"></path><path d="M285.23006134969324,246.09874950384614h5v1h-5Z" style="fill: white; opacity: 0.7;"></path><path d="M293.819018404908,251.0609760423077h5v1h-5Z" style="fill: white; opacity: 0.7;"></path><path d="M302.40797546012266,242.03187450384615h5v1h-5Z" style="fill: white; opacity: 0.7;"></path><path d="M310.9969325153374,246.20667584999995h5v1h-5Z" style="fill: white; opacity: 0.7;"></path><path d="M319.5858895705521,242.39527758076923h5v1h-5Z" style="fill: white; opacity: 0.7;"></path><path d="M328.17484662576686,243.5085437346154h5v1h-5Z" style="fill: white; opacity: 0.7;"></path><path d="M336.7638036809816,261.195176426923h5v1h-5Z" style="fill: white; opacity: 0.7;"></path><path d="M345.3527607361963,252.2608889269231h5v1h-5Z" style="fill: white; opacity: 0.7;"></path><path d="M353.941717791411,257.3355091192308h5v1h-5Z" style="fill: white; opacity: 0.7;"></path><path d="M362.53067484662574,261.08983335h5v1h-5Z" style="fill: white; opacity: 0.7;"></path><path d="M371.1196319018405,267.18620604230773h5v1h-5Z" style="fill: white; opacity: 0.7;"></path><path d="M379.7085889570552,267.03527335h5v1h-5Z" style="fill: white; opacity: 0.7;"></path><path d="M388.29754601226995,262.54055142692306h5v1h-5Z" style="fill: white; opacity: 0.7;"></path><path d="M396.8865030674846,266.4845085423077h5v1h-5Z" style="fill: white; opacity: 0.7;"></path><path d="M405.47546012269936,264.1967406576923h5v1h-5Z" style="fill: white; opacity: 0.7;"></path><path d="M414.0644171779141,248.09292623461536h5v1h-5Z" style="fill: white; opacity: 0.7;"></path><path d="M422.65337423312883,254.9145785423077h5v1h-5Z" style="fill: white; opacity: 0.7;"></path><path d="M431.24233128834356,243.88161585h5v1h-5Z" style="fill: white; opacity: 0.7;"></path><path d="M439.83128834355824,253.18502623461535h5v1h-5Z" style="fill: white; opacity: 0.7;"></path><path d="M448.420245398773,233.5628568115385h5v1h-5Z" style="fill: white; opacity: 0.7;"></path><path d="M457.0092024539877,221.2164745038462h5v1h-5Z" style="fill: white; opacity: 0.7;"></path><path d="M465.59815950920245,240.38877027307694h5v1h-5Z" style="fill: white; opacity: 0.7;"></path><path d="M474.1871165644172,318.8513270038461h5v1h-5Z" style="fill: white; opacity: 0.7;"></path><path d="M482.7760736196319,324.08192796538464h5v1h-5Z" style="fill: white; opacity: 0.7;"></path><path d="M491.3650306748466,324.1564706576923h5v1h-5Z" style="fill: white; opacity: 0.7;"></path><path d="M499.9539877300613,320.88014085h5v1h-5Z" style="fill: white; opacity: 0.7;"></path><path d="M508.54294478527606,243.16450950384615h5v1h-5Z" style="fill: white; opacity: 0.7;"></path><path d="M517.1319018404907,255.08349738846155h5v1h-5Z" style="fill: white; opacity: 0.7;"></path><path d="M525.7208588957055,261.40365835h5v1h-5Z" style="fill: white; opacity: 0.7;"></path><path d="M534.3098159509202,265.64239700384616h5v1h-5Z" style="fill: white; opacity: 0.7;"></path><path d="M542.898773006135,251.95582911923077h5v1h-5Z" style="fill: white; opacity: 0.7;"></path><path d="M551.4877300613497,260.03907527307695h5v1h-5Z" style="fill: white; opacity: 0.7;"></path><path d="M560.0766871165644,273.2837137346154h5v1h-5Z" style="fill: white; opacity: 0.7;"></path><path d="M568.6656441717791,252.1834635423077h5v1h-5Z" style="fill: white; opacity: 0.7;"></path><path d="M577.2546012269938,252.2868841192308h5v1h-5Z" style="fill: white; opacity: 0.7;"></path><path d="M585.8435582822086,254.1788912346154h5v1h-5Z" style="fill: white; opacity: 0.7;"></path><path d="M594.4325153374233,204.55150758076923h5v1h-5Z" style="fill: white; opacity: 0.7;"></path><path d="M603.021472392638,206.06348354230767h5v1h-5Z" style="fill: white; opacity: 0.7;"></path><path d="M611.6104294478528,205.23958623461533h5v1h-5Z" style="fill: white; opacity: 0.7;"></path><path d="M620.1993865030674,203.51634565769228h5v1h-5Z" style="fill: white; opacity: 0.7;"></path><path d="M628.7883435582822,206.00740585h5v1h-5Z" style="fill: white; opacity: 0.7;"></path><path d="M637.3773006134969,206.46035950384618h5v1h-5Z" style="fill: white; opacity: 0.7;"></path><path d="M645.9662576687116,205.8476210423077h5v1h-5Z" style="fill: white; opacity: 0.7;"></path><path d="M654.5552147239264,204.96805238846156h5v1h-5Z" style="fill: white; opacity: 0.7;"></path><path d="M663.1441717791411,204.83000431153846h5v1h-5Z" style="fill: white; opacity: 0.7;"></path><path d="M671.7331288343559,204.22094354230768h5v1h-5Z" style="fill: white; opacity: 0.7;"></path><path d="M680.3220858895705,206.43530200384612h5v1h-5Z" style="fill: white; opacity: 0.7;"></path><path d="M688.9110429447852,202.1066923884615h5v1h-5Z" style="fill: white; opacity: 0.7;"></path><path d="M697.5,197.50556181153843h5v1h-5Z" style="fill: white; opacity: 0.7;"></path><path d="M706.0889570552147,193.28582584999998h5v1h-5Z" style="fill: white; opacity: 0.7;"></path><path d="M714.6779141104295,194.3645723884615h5v1h-5Z" style="fill: white; opacity: 0.7;"></path><path d="M723.2668711656441,235.1460414269231h5v1h-5Z" style="fill: white; opacity: 0.7;"></path><path d="M731.8558282208589,256.43749700384615h5v1h-5Z" style="fill: white; opacity: 0.7;"></path><path d="M740.4447852760736,255.89649200384616h5v1h-5Z" style="fill: white; opacity: 0.7;"></path><path d="M749.0337423312883,264.84976335h5v1h-5Z" style="fill: white; opacity: 0.7;"></path><path d="M757.6226993865031,268.4983420038462h5v1h-5Z" style="fill: white; opacity: 0.7;"></path><path d="M766.2116564417178,271.7280402730769h5v1h-5Z" style="fill: white; opacity: 0.7;"></path><path d="M774.8006134969326,269.0533962346154h5v1h-5Z" style="fill: white; opacity: 0.7;"></path><path d="M783.3895705521472,268.96846623461533h5v1h-5Z" style="fill: white; opacity: 0.7;"></path><path d="M791.9785276073619,273.31593584999996h5v1h-5Z" style="fill: white; opacity: 0.7;"></path><path d="M800.5674846625767,219.45159488846156h5v1h-5Z" style="fill: white; opacity: 0.7;"></path><path d="M809.1564417177914,217.56173277307693h5v1h-5Z" style="fill: white; opacity: 0.7;"></path><path d="M817.7453987730062,210.10034277307687h5v1h-5Z" style="fill: white; opacity: 0.7;"></path><path d="M826.3343558282209,271.62398835h5v1h-5Z" style="fill: white; opacity: 0.7;"></path><path d="M834.9233128834355,275.9776941192308h5v1h-5Z" style="fill: white; opacity: 0.7;"></path><path d="M843.5122699386503,272.0604993115385h5v1h-5Z" style="fill: white; opacity: 0.7;"></path><path d="M852.101226993865,268.42204085000003h5v1h-5Z" style="fill: white; opacity: 0.7;"></path><path d="M860.6901840490798,250.56360700384616h5v1h-5Z" style="fill: white; opacity: 0.7;"></path><path d="M869.2791411042945,277.9449439269231h5v1h-5Z" style="fill: white; opacity: 0.7;"></path><path d="M877.8680981595091,270.99306123461537h5v1h-5Z" style="fill: white; opacity: 0.7;"></path><path d="M886.4570552147239,265.56477661923077h5v1h-5Z" style="fill: white; opacity: 0.7;"></path><path d="M895.0460122699386,253.95381181153846h5v1h-5Z" style="fill: white; opacity: 0.7;"></path><path d="M903.6349693251534,257.98669661923077h5v1h-5Z" style="fill: white; opacity: 0.7;"></path><path d="M912.2239263803681,258.8621954653846h5v1h-5Z" style="fill: white; opacity: 0.7;"></path><path d="M920.8128834355828,255.8406021961539h5v1h-5Z" style="fill: white; opacity: 0.7;"></path><path d="M929.4018404907976,255.38435931153845h5v1h-5Z" style="fill: white; opacity: 0.7;"></path><path d="M937.9907975460122,260.40549085h5v1h-5Z" style="fill: white; opacity: 0.7;"></path><path d="M946.579754601227,215.4616627730769h5v1h-5Z" style="fill: white; opacity: 0.7;"></path><path d="M955.1687116564417,216.8777820038461h5v1h-5Z" style="fill: white; opacity: 0.7;"></path><path d="M963.7576687116565,219.46258988846154h5v1h-5Z" style="fill: white; opacity: 0.7;"></path><path d="M972.3466257668712,224.07079411923075h5v1h-5Z" style="fill: white; opacity: 0.7;"></path><path d="M980.9355828220858,207.51364565769228h5v1h-5Z" style="fill: white; opacity: 0.7;"></path><path d="M989.5245398773006,225.39606585h5v1h-5Z" style="fill: white; opacity: 0.7;"></path><path d="M998.1134969325153,226.90765200384618h5v1h-5Z" style="fill: white; opacity: 0.7;"></path><path d="M1006.7024539877301,213.26270161923077h5v1h-5Z" style="fill: white; opacity: 0.7;"></path><path d="M1015.2914110429448,213.84816815769233h5v1h-5Z" style="fill: white; opacity: 0.7;"></path><path d="M1023.8803680981596,208.1262704653846h5v1h-5Z" style="fill: white; opacity: 0.7;"></path><path d="M1032.4693251533743,213.92170431153846h5v1h-5Z" style="fill: white; opacity: 0.7;"></path><path d="M1041.0582822085892,213.76185200384612h5v1h-5Z" style="fill: white; opacity: 0.7;"></path><path d="M1049.6472392638038,203.59989411923073h5v1h-5Z" style="fill: white; opacity: 0.7;"></path><path d="M1058.2361963190185,202.12726334999996h5v1h-5Z" style="fill: white; opacity: 0.7;"></path><path d="M1066.8251533742332,189.94221738846153h5v1h-5Z" style="fill: white; opacity: 0.7;"></path><path d="M1075.4141104294479,192.10298661923076h5v1h-5Z" style="fill: white; opacity: 0.7;"></path><path d="M1084.0030674846628,195.49593738846147h5v1h-5Z" style="fill: white; opacity: 0.7;"></path><path d="M1092.5920245398775,180.24576508076922h5v1h-5Z" style="fill: white; opacity: 0.7;"></path><path d="M1101.1809815950921,194.59617008076924h5v1h-5Z" style="fill: white; opacity: 0.7;"></path><path d="M1109.7699386503068,199.64666815769232h5v1h-5Z" style="fill: white; opacity: 0.7;"></path><path d="M1118.3588957055215,203.55843642692304h5v1h-5Z" style="fill: white; opacity: 0.7;"></path><path d="M1126.9478527607364,203.43574681153848h5v1h-5Z" style="fill: white; opacity: 0.7;"></path><path d="M1135.536809815951,182.5156118115384h5v1h-5Z" style="fill: white; opacity: 0.7;"></path><path d="M1144.1257668711658,204.52835277307696h5v1h-5Z" style="fill: white; opacity: 0.7;"></path><path d="M1152.7147239263804,193.0539079653846h5v1h-5Z" style="fill: white; opacity: 0.7;"></path><path d="M1161.303680981595,199.63825527307694h5v1h-5Z" style="fill: white; opacity: 0.7;"></path><path d="M1169.89263803681,204.53887835h5v1h-5Z" style="fill: white; opacity: 0.7;"></path><path d="M1178.4815950920247,207.83752950384616h5v1h-5Z" style="fill: white; opacity: 0.7;"></path><path d="M1187.0705521472394,205.70029469615383h5v1h-5Z" style="fill: white; opacity: 0.7;"></path><path d="M1195.659509202454,247.01726777307692h5v1h-5Z" style="fill: white; opacity: 0.7;"></path><path d="M1204.2484662576687,297.6585781576923h5v1h-5Z" style="fill: white; opacity: 0.7;"></path><path d="M1212.8374233128836,300.63052969615387h5v1h-5Z" style="fill: white; opacity: 0.7;"></path><path d="M1221.4263803680983,294.0926087346154h5v1h-5Z" style="fill: white; opacity: 0.7;"></path><path d="M1230.015337423313,294.69129450384617h5v1h-5Z" style="fill: white; opacity: 0.7;"></path><path d="M1238.6042944785277,290.6108637346154h5v1h-5Z" style="fill: white; opacity: 0.7;"></path><path d="M1247.1932515337423,299.1195502730769h5v1h-5Z" style="fill: white; opacity: 0.7;"></path><path d="M1255.7822085889572,295.67807411923076h5v1h-5Z" style="fill: white; opacity: 0.7;"></path><path d="M1264.371165644172,295.0273729653846h5v1h-5Z" style="fill: white; opacity: 0.7;"></path><path d="M1272.9601226993866,296.60390661923077h5v1h-5Z" style="fill: white; opacity: 0.7;"></path><path d="M1281.5490797546013,298.64883700384615h5v1h-5Z" style="fill: white; opacity: 0.7;"></path><path d="M1290.138036809816,299.0891204653846h5v1h-5Z" style="fill: white; opacity: 0.7;"></path><path d="M1298.7269938650309,299.36232392692307h5v1h-5Z" style="fill: white; opacity: 0.7;"></path><path d="M1307.3159509202455,296.6311685423077h5v1h-5Z" style="fill: white; opacity: 0.7;"></path><path d="M1315.9049079754602,299.6781352730769h5v1h-5Z" style="fill: white; opacity: 0.7;"></path><path d="M1324.493865030675,302.30773335000003h5v1h-5Z" style="fill: white; opacity: 0.7;"></path><path d="M1333.0828220858896,302.4780473884615h5v1h-5Z" style="fill: white; opacity: 0.7;"></path><path d="M1341.6717791411045,298.90118969615384h5v1h-5Z" style="fill: white; opacity: 0.7;"></path><path d="M1350.2607361963192,301.6763339269231h5v1h-5Z" style="fill: white; opacity: 0.7;"></path><path d="M1358.8496932515338,301.39929450384614h5v1h-5Z" style="fill: white; opacity: 0.7;"></path><path d="M1367.4386503067485,297.01658758076917h5v1h-5Z" style="fill: white; opacity: 0.7;"></path><path d="M1376.0276073619632,293.54418527307695h5v1h-5Z" style="fill: white; opacity: 0.7;"></path><path d="M1384.616564417178,296.8906112346154h5v1h-5Z" style="fill: white; opacity: 0.7;"></path><path d="M1393.2055214723928,297.79369181153845h5v1h-5Z" style="fill: white; opacity: 0.7;"></path></g><g class="mark-group role-axis"><g transform="translate(0.5,500.5)"><path class="background" d="M0,0h0v0h0Z" style="pointer-events: none; fill: none;"></path><g><g class="mark-rule role-axis-domain" style="pointer-events: none;"><line transform="translate(0,0)" x2="1400" y2="0" style="fill: none; stroke: #888; stroke-width: 1; opacity: 1;"></line></g><g class="mark-text role-axis-title" style="pointer-events: none;"><text text-anchor="middle" transform="translate(700,13)" style="font-family: sans-serif; font-size: 11px; font-weight: bold; fill: #000; opacity: 1;">Commit</text></g></g></g></g><g class="mark-group role-axis"><g transform="translate(0.5,0.5)"><path class="background" d="M0,0h0v0h0Z" style="pointer-events: none; fill: none;"></path><g><g class="mark-rule role-axis-tick" style="pointer-events: none;"><line transform="translate(0,500)" x2="-5" y2="0" style="fill: none; stroke: #888; stroke-width: 1; opacity: 1;"></line><line transform="translate(0,462)" x2="-5" y2="0" style="fill: none; stroke: #888; stroke-width: 1; opacity: 1;"></line><line transform="translate(0,423)" x2="-5" y2="0" style="fill: none; stroke: #888; stroke-width: 1; opacity: 1;"></line><line transform="translate(0,385)" x2="-5" y2="0" style="fill: none; stroke: #888; stroke-width: 1; opacity: 1;"></line><line transform="translate(0,346)" x2="-5" y2="0" style="fill: none; stroke: #888; stroke-width: 1; opacity: 1;"></line><line transform="translate(0,308)" x2="-5" y2="0" style="fill: none; stroke: #888; stroke-width: 1; opacity: 1;"></line><line transform="translate(0,269)" x2="-5" y2="0" style="fill: none; stroke: #888; stroke-width: 1; opacity: 1;"></line><line transform="translate(0,231)" x2="-5" y2="0" style="fill: none; stroke: #888; stroke-width: 1; opacity: 1;"></line><line transform="translate(0,192)" x2="-5" y2="0" style="fill: none; stroke: #888; stroke-width: 1; opacity: 1;"></line><line transform="translate(0,154)" x2="-5" y2="0" style="fill: none; stroke: #888; stroke-width: 1; opacity: 1;"></line><line transform="translate(0,115)" x2="-5" y2="0" style="fill: none; stroke: #888; stroke-width: 1; opacity: 1;"></line><line transform="translate(0,77)" x2="-5" y2="0" style="fill: none; stroke: #888; stroke-width: 1; opacity: 1;"></line><line transform="translate(0,38)" x2="-5" y2="0" style="fill: none; stroke: #888; stroke-width: 1; opacity: 1;"></line><line transform="translate(0,0)" x2="-5" y2="0" style="fill: none; stroke: #888; stroke-width: 1; opacity: 1;"></line></g><g class="mark-text role-axis-label" style="pointer-events: none;"><text text-anchor="end" transform="translate(-7,503)" style="font-family: sans-serif; font-size: 10px; fill: #000; opacity: 1;">0.0</text><text text-anchor="end" transform="translate(-7,464.53846153846155)" style="font-family: sans-serif; font-size: 10px; fill: #000; opacity: 1;">0.2</text><text text-anchor="end" transform="translate(-7,426.0769230769231)" style="font-family: sans-serif; font-size: 10px; fill: #000; opacity: 1;">0.4</text><text text-anchor="end" transform="translate(-7,387.61538461538464)" style="font-family: sans-serif; font-size: 10px; fill: #000; opacity: 1;">0.6</text><text text-anchor="end" transform="translate(-7,349.15384615384613)" style="font-family: sans-serif; font-size: 10px; fill: #000; opacity: 1;">0.8</text><text text-anchor="end" transform="translate(-7,310.69230769230774)" style="font-family: sans-serif; font-size: 10px; fill: #000; opacity: 1;">1.0</text><text text-anchor="end" transform="translate(-7,272.2307692307693)" style="font-family: sans-serif; font-size: 10px; fill: #000; opacity: 1;">1.2</text><text text-anchor="end" transform="translate(-7,233.76923076923077)" style="font-family: sans-serif; font-size: 10px; fill: #000; opacity: 1;">1.4</text><text text-anchor="end" transform="translate(-7,195.30769230769226)" style="font-family: sans-serif; font-size: 10px; fill: #000; opacity: 1;">1.6</text><text text-anchor="end" transform="translate(-7,156.84615384615387)" style="font-family: sans-serif; font-size: 10px; fill: #000; opacity: 1;">1.8</text><text text-anchor="end" transform="translate(-7,118.38461538461542)" style="font-family: sans-serif; font-size: 10px; fill: #000; opacity: 1;">2.0</text><text text-anchor="end" transform="translate(-7,79.9230769230769)" style="font-family: sans-serif; font-size: 10px; fill: #000; opacity: 1;">2.2</text><text text-anchor="end" transform="translate(-7,41.46153846153851)" style="font-family: sans-serif; font-size: 10px; fill: #000; opacity: 1;">2.4</text><text text-anchor="end" transform="translate(-7,3)" style="font-family: sans-serif; font-size: 10px; fill: #000; opacity: 1;">2.6</text></g><g class="mark-rule role-axis-domain" style="pointer-events: none;"><line transform="translate(0,500)" x2="0" y2="-500" style="fill: none; stroke: #888; stroke-width: 1; opacity: 1;"></line></g><g class="mark-text role-axis-title" style="pointer-events: none;"><text text-anchor="middle" transform="translate(-24.9013671875,250) rotate(-90) translate(0,-2)" style="font-family: sans-serif; font-size: 11px; font-weight: bold; fill: #000; opacity: 1;">Time</text></g></g></g></g></g></g></g></g></svg>